<?xml version="1.0" standalone="no"?>
<!DOCTYPE svg PUBLIC "-//W3C//DTD SVG 20010904//EN"
 "http://www.w3.org/TR/2001/REC-SVG-20010904/DTD/svg10.dtd">
<svg version="1.0" xmlns="http://www.w3.org/2000/svg"
 width="1024.000000pt" height="1024.000000pt" viewBox="0 0 1024.000000 1024.000000"
 preserveAspectRatio="xMidYMid meet">

<g transform="translate(0.000000,1024.000000) scale(0.100000,-0.100000)"
fill="#000000" stroke="none">
<path d="M8639 9504 c-17 -21 -102 -217 -143 -332 -37 -105 -114 -263 -180
-371 -31 -52 -66 -112 -78 -135 -11 -23 -37 -61 -58 -86 -20 -25 -43 -63 -50
-85 -21 -64 -39 -85 -74 -86 -30 -2 -30 -2 -3 -6 41 -6 35 -33 -8 -33 l-35 0
0 -50 0 -50 81 0 82 0 -6 45 c-4 25 -2 47 3 50 6 3 9 34 8 68 -2 60 -1 65 54
147 70 107 213 373 262 490 24 57 86 219 86 224 0 3 18 44 41 92 41 89 52 157
18 118z"/>
<path d="M7750 8910 c0 -5 5 -10 10 -10 6 0 10 5 10 10 0 6 -4 10 -10 10 -5 0
-10 -4 -10 -10z"/>
<path d="M7950 8910 c0 -5 5 -10 11 -10 5 0 7 5 4 10 -3 6 -8 10 -11 10 -2 0
-4 -4 -4 -10z"/>
<path d="M8145 8910 c-3 -5 -1 -10 4 -10 6 0 11 5 11 10 0 6 -2 10 -4 10 -3 0
-8 -4 -11 -10z"/>
<path d="M8155 8580 c-3 -5 -1 -10 4 -10 6 0 11 5 11 10 0 6 -2 10 -4 10 -3 0
-8 -4 -11 -10z"/>
<path d="M5795 8250 l-1940 -5 -7 -85 c-3 -47 -4 -106 -1 -131 9 -83 32 -79
-455 -79 -319 0 -433 3 -452 13 -14 7 -34 30 -45 53 -41 82 -119 214 -127 214
-16 0 -8 -27 23 -76 41 -63 89 -164 89 -186 0 -17 -124 -21 -730 -23 -91 0
-171 -4 -177 -8 -10 -7 -13 -385 -13 -1836 l0 -1827 -43 -42 c-24 -24 -51 -64
-62 -93 -24 -63 -81 -128 -193 -221 -49 -42 -99 -94 -120 -127 -31 -48 -36
-64 -36 -116 1 -65 14 -99 72 -179 30 -41 33 -50 20 -57 -10 -5 -14 -17 -11
-28 3 -10 -1 -22 -8 -26 -7 -5 -10 -4 -6 2 4 6 -1 17 -10 24 -15 12 -16 12
-10 -4 5 -14 1 -17 -24 -17 -37 0 -69 -16 -69 -34 0 -17 -22 -26 -61 -26 -39
0 -38 -26 2 -34 41 -8 36 -38 -9 -51 -37 -11 -45 -28 -34 -70 6 -19 16 -31 32
-35 33 -8 36 -28 6 -36 -53 -13 -54 -50 -1 -56 l30 -3 0 -120 0 -120 -28 -3
c-31 -4 -32 -25 -1 -31 24 -4 34 -19 34 -53 0 -24 4 -28 30 -28 23 0 30 -4 30
-20 0 -13 -10 -24 -25 -30 -17 -7 -25 -17 -25 -34 0 -14 -4 -27 -9 -30 -5 -3
-7 -15 -4 -25 3 -10 0 -22 -6 -25 -14 -9 -14 -46 -1 -46 7 0 10 -25 8 -67 -3
-65 -4 -68 -28 -70 -14 0 -31 -1 -37 -2 -7 -1 -13 -14 -13 -29 0 -34 -16 -52
-47 -52 -25 0 -43 -26 -43 -64 0 -44 10 -56 47 -56 32 0 34 -2 31 -27 -3 -25
-7 -28 -41 -29 -27 -1 -43 -7 -53 -23 -10 -14 -26 -21 -49 -21 -31 0 -35 -3
-41 -37 -10 -55 -55 -93 -105 -91 -42 1 -64 23 -53 51 4 11 17 13 49 9 52 -5
75 9 75 47 0 48 -13 56 -101 60 -92 4 -109 -6 -109 -61 0 -23 4 -28 24 -28 14
0 27 -4 30 -9 3 -5 -14 -6 -38 -4 -57 7 -86 -9 -86 -47 0 -16 5 -32 10 -35 15
-9 2 -25 -21 -25 -11 0 -22 -6 -25 -14 -8 -22 -31 -27 -60 -14 -19 9 -27 9
-32 1 -4 -7 -28 -13 -52 -15 l-45 -3 0 -50 0 -50 102 -3 c97 -3 102 -2 120 22
11 13 28 26 39 28 16 3 19 12 18 55 l-2 52 105 3 c99 3 104 2 101 -17 -2 -14
-13 -21 -38 -25 -27 -4 -36 -10 -38 -29 -3 -16 0 -21 9 -15 9 5 11 2 6 -9 -4
-11 -1 -17 8 -17 8 0 15 6 15 14 0 16 78 27 87 13 3 -5 16 -7 29 -4 13 2 21 0
17 -6 -3 -5 -1 -12 4 -16 6 -3 13 -16 17 -28 7 -21 4 -23 -28 -23 -50 0 -66
-9 -66 -36 0 -16 -6 -24 -18 -24 -21 0 -42 -18 -42 -37 0 -9 17 -14 53 -15 45
-1 42 -2 -23 -7 -66 -5 -75 -4 -78 11 -4 19 -22 25 -22 8 0 -5 -10 -10 -23
-10 -35 0 -47 -19 -47 -77 l0 -53 130 -2 c72 -1 142 -2 158 -2 22 -1 28 4 30
24 5 49 13 70 23 67 7 -1 14 4 16 11 3 7 -1 12 -8 11 -25 -4 -99 13 -93 22 2
4 -7 16 -21 25 -33 21 -32 34 3 34 32 0 46 9 55 32 3 9 14 16 24 16 10 -1 28
2 39 6 15 4 23 2 28 -9 4 -11 13 -14 26 -10 11 4 34 4 51 0 23 -5 29 -11 27
-28 -2 -17 1 -21 17 -19 11 2 50 4 87 4 44 0 71 4 78 13 13 15 34 10 69 -17
14 -11 40 -18 66 -18 44 0 55 -10 55 -51 0 -17 8 -19 87 -18 55 1 89 -3 91
-10 5 -16 22 -13 22 4 0 9 6 12 15 9 8 -4 15 -1 15 5 0 6 -9 11 -20 11 -14 0
-20 7 -20 24 0 20 6 24 46 30 83 11 84 10 84 -34 0 -30 -4 -40 -16 -40 -10 0
-14 -6 -10 -15 3 -9 0 -15 -9 -15 -7 0 -17 9 -20 20 -7 23 -25 27 -25 5 0 -8
-11 -17 -25 -21 -14 -3 -22 -11 -18 -17 4 -6 1 -7 -7 -2 -15 9 -30 -12 -23
-32 3 -9 24 -13 64 -13 52 0 60 3 76 26 16 25 20 26 75 20 54 -6 60 -5 82 19
13 14 32 25 43 25 40 0 82 13 87 26 4 11 -1 13 -20 8 -31 -8 -47 11 -33 37 7
14 26 18 94 21 59 2 84 0 81 -8 -2 -6 0 -17 5 -25 8 -12 10 -12 8 1 -3 29 1
40 16 40 8 0 15 -7 15 -15 0 -8 -4 -15 -9 -15 -5 0 -7 -9 -4 -19 3 -13 -2 -21
-15 -26 -12 -3 -23 -14 -25 -23 -4 -15 -5 -15 -6 2 -1 14 -6 17 -25 12 -28 -7
-43 9 -27 28 13 16 -11 42 -29 31 -18 -11 -12 -56 10 -62 10 -3 22 -13 25 -23
9 -28 35 -33 55 -10 12 14 33 22 66 24 41 3 50 8 52 25 2 12 8 21 13 21 6 0 7
4 4 10 -3 5 -14 10 -23 9 -9 0 -12 -3 -6 -5 13 -5 7 -44 -6 -44 -4 0 -10 8
-14 18 -3 9 -9 23 -12 30 -4 9 10 12 56 12 l61 0 -2 -101 c-1 -76 2 -104 12
-110 8 -6 102 -9 209 -8 107 1 1108 2 2225 1 1117 -1 2045 1 2063 4 l32 6 0
92 c0 108 6 121 48 111 33 -7 77 10 67 26 -4 5 12 8 37 7 36 -1 38 -2 11 -5
-32 -4 -32 -5 -17 -29 16 -23 64 -35 64 -15 0 5 16 12 35 15 19 4 35 11 35 16
0 5 65 9 145 9 80 1 145 -2 144 -6 -1 -5 -1 -14 0 -21 1 -18 26 -9 26 9 0 11
22 13 120 11 175 -4 200 -8 213 -37 10 -21 19 -25 56 -25 26 0 48 6 56 15 18
22 30 18 30 -9 0 -13 6 -28 13 -34 16 -13 77 -3 77 13 0 15 -27 28 -41 19 -5
-3 -8 0 -7 7 2 6 -12 16 -30 21 -28 7 -31 11 -22 27 12 24 88 41 173 40 49 0
57 -2 39 -10 -13 -5 -22 -15 -20 -21 3 -9 36 -14 109 -16 110 -3 131 -10 108
-38 -10 -12 -25 -15 -66 -12 -37 3 -57 1 -65 -9 -6 -7 -8 -16 -5 -20 4 -3 138
-7 299 -8 368 -2 338 0 338 -29 0 -14 -4 -28 -10 -31 -33 -20 3 -25 158 -23
l167 3 3 47 c3 40 0 47 -18 53 -12 4 -41 4 -65 1 -38 -6 -44 -4 -60 20 -15 24
-22 26 -62 21 -25 -3 -49 -10 -53 -17 -5 -8 -28 -9 -79 -4 -47 4 -71 3 -71 -4
0 -20 -39 0 -42 22 -3 18 -11 22 -68 26 -57 4 -65 8 -65 25 0 18 8 20 71 23
62 2 73 6 77 22 4 15 14 20 40 20 52 0 127 12 127 20 0 4 -13 10 -30 14 -24 4
-30 11 -30 31 0 22 3 25 24 19 13 -3 35 0 48 7 12 7 26 13 30 14 14 0 19 14
10 32 -5 10 -14 33 -20 50 l-10 33 43 0 c71 0 95 14 95 54 0 30 -4 35 -30 41
-16 4 -34 4 -40 0 -19 -11 -68 5 -73 25 -3 13 -16 20 -43 22 -37 3 -39 5 -44
43 -5 36 -8 40 -37 43 -39 4 -50 17 -55 62 -3 33 -6 35 -40 38 -32 3 -38 7
-38 27 0 23 17 35 51 35 12 0 19 7 19 20 0 15 -7 20 -29 20 -49 0 -61 21 -61
111 0 75 -1 79 -24 85 -14 3 -27 12 -30 20 -3 9 -21 14 -50 14 -66 0 -76 6
-76 51 0 37 -2 39 -30 39 -24 0 -33 6 -40 26 -8 19 -15 24 -30 19 -11 -3 -29
-3 -40 0 -16 5 -20 15 -20 55 0 63 0 63 -202 58 l-153 -3 4 30 c2 17 4 77 4
135 0 111 -22 223 -65 328 l-22 53 34 27 c19 15 54 41 79 57 27 18 54 46 65
69 28 56 32 160 11 250 l-18 75 24 47 c25 50 36 59 82 69 18 3 27 12 27 25 0
28 -14 32 -64 19 -42 -10 -48 -16 -72 -67 -30 -63 -34 -127 -15 -217 15 -70 8
-149 -19 -192 -18 -30 -85 -82 -122 -96 -16 -6 -18 0 -18 44 0 43 -3 50 -17
47 -15 -3 -18 -17 -21 -88 -3 -76 0 -91 27 -150 55 -118 87 -327 61 -394 -7
-20 -16 -26 -41 -26 -22 0 -32 -5 -36 -19 -8 -31 -33 -35 -33 -6 0 20 -5 25
-24 25 -14 0 -36 -4 -49 -9 -20 -8 -27 -6 -31 5 -4 11 -18 14 -48 12 -38 -3
-43 0 -46 20 -3 18 1 22 22 22 14 0 27 4 30 8 3 5 -15 7 -39 6 -63 -4 -88 5
-82 27 3 10 -4 30 -14 43 l-19 24 30 7 c16 4 32 11 35 16 4 5 16 9 28 9 19 1
20 2 5 11 -10 5 -15 16 -11 25 5 13 7 13 14 2 5 -7 9 -8 9 -2 0 6 -9 19 -20
29 -27 24 -25 35 4 35 15 0 27 7 31 19 5 17 34 31 158 72 24 9 37 19 37 31 0
10 -1 18 -2 18 -10 0 -155 -63 -162 -71 -6 -5 -18 -9 -28 -9 -15 0 -18 9 -18
50 l0 50 34 0 34 0 7 80 c7 80 7 80 36 80 28 0 29 2 29 45 0 42 2 45 33 54 31
9 31 9 5 10 -24 1 -28 5 -28 31 0 28 3 30 35 30 31 0 35 3 34 23 -1 12 -1 43
-1 69 2 40 5 47 25 50 17 2 22 10 22 33 0 22 6 32 20 35 14 4 22 17 25 40 4
29 10 36 33 38 24 3 27 8 28 40 1 20 3 46 4 57 1 11 2 30 3 43 2 16 8 22 27
22 15 0 31 9 41 25 14 21 24 25 69 25 60 0 65 6 65 80 0 38 4 50 23 63 l22 14
0 1947 c0 1720 -2 1948 -15 1956 -9 6 -178 9 -420 7 -223 -1 -1278 -4 -2345
-7z m-1097 -37 c-21 -2 -57 -2 -80 0 -24 2 -7 4 37 4 44 0 63 -2 43 -4z m885
0 c-145 -2 -381 -2 -526 0 -144 1 -26 2 263 2 289 0 407 -1 263 -2z m330 0
c-7 -2 -21 -2 -30 0 -10 3 -4 5 12 5 17 0 24 -2 18 -5z m-1876 -165 c-3 -7 -5
-2 -5 12 0 14 2 19 5 13 2 -7 2 -19 0 -25z m729 17 c-3 -8 -1 -15 3 -15 5 0
12 6 14 13 3 6 6 -4 6 -23 1 -26 -2 -31 -9 -20 -8 12 -12 12 -18 2 -6 -8 -9 0
-10 23 -1 19 3 35 9 35 6 0 9 -7 5 -15z m54 -20 c0 -19 -4 -35 -10 -35 -5 0
-10 16 -10 35 0 19 5 35 10 35 6 0 10 -16 10 -35z m30 -1 c0 -21 -4 -33 -10
-29 -5 3 -10 19 -10 36 0 16 5 29 10 29 6 0 10 -16 10 -36z m35 -32 c-3 -4
-10 0 -15 8 -13 20 -12 33 0 25 6 -3 11 4 12 17 1 14 3 10 5 -10 3 -19 2 -37
-2 -40z m35 32 c0 -20 -4 -33 -10 -29 -11 7 -9 65 3 65 4 0 7 -16 7 -36z m30
0 c0 -19 -4 -33 -8 -30 -4 2 -7 17 -6 33 3 33 3 33 9 33 3 0 5 -16 5 -36z m30
0 c0 -20 -4 -33 -10 -29 -11 7 -9 65 3 65 4 0 7 -16 7 -36z m28 5 c-3 -8 -7
-3 -11 10 -4 17 -3 21 5 13 5 -5 8 -16 6 -23z m47 21 c3 -6 -1 -7 -9 -4 -17 7
-22 -11 -6 -21 6 -3 10 -14 10 -23 0 -13 -2 -13 -15 4 -8 10 -15 27 -15 37 0
18 25 24 35 7z m80 -1 c-4 -6 2 -13 14 -16 12 -3 21 -10 21 -15 0 -6 -7 -8
-15 -4 -10 4 -15 -1 -15 -16 0 -31 -6 -19 -13 25 -3 22 -2 37 4 37 6 0 7 -5 4
-11z m30 1 c3 -5 1 -10 -4 -10 -6 0 -11 5 -11 10 0 6 2 10 4 10 3 0 8 -4 11
-10z m71 -2 c5 -8 2 -9 -11 -4 -11 4 -22 2 -27 -6 -12 -20 -10 -35 7 -42 9 -3
15 0 15 10 0 8 -4 12 -10 9 -5 -3 -10 -1 -10 4 0 6 7 11 15 11 17 0 21 -35 5
-45 -16 -10 -40 14 -40 40 0 31 41 48 56 23z m88 3 c4 -5 -3 -7 -14 -4 -27 7
-38 -23 -16 -45 16 -16 18 -16 36 6 20 24 32 29 24 9 -9 -24 -43 -38 -64 -27
-19 10 -27 49 -13 63 9 10 41 8 47 -2z m63 -28 c1 -36 1 -36 -6 -8 -4 17 -13
29 -20 27 -7 -1 -10 2 -6 8 14 23 31 9 32 -27z m73 0 c0 -20 -3 -33 -7 -30
-10 10 -11 67 -1 67 4 0 8 -16 8 -37z m62 2 c2 -19 0 -35 -4 -35 -4 0 -8 7 -8
15 0 8 -7 15 -15 15 -8 0 -15 8 -14 18 0 10 3 12 6 5 2 -7 9 -13 15 -13 6 0 8
7 4 15 -3 8 -2 15 3 15 5 0 11 -16 13 -35z m46 10 c0 -14 -4 -25 -9 -25 -5 0
-9 11 -9 25 0 14 4 25 9 25 5 0 9 -11 9 -25z m1700 18 c-21 -2 -57 -2 -80 0
-24 2 -7 4 37 4 44 0 63 -2 43 -4z m-1838 -35 c0 -17 -3 -28 -7 -24 -11 10
-11 56 -1 56 4 0 8 -14 8 -32z m455 2 c3 -6 -1 -7 -9 -4 -18 7 -21 14 -7 14 6
0 13 -4 16 -10z m-390 -20 c3 -5 1 -10 -4 -10 -6 0 -11 5 -11 10 0 6 2 10 4
10 3 0 8 -4 11 -10z m-1458 -42 c-3 -8 -6 -5 -6 6 -1 11 2 17 5 13 3 -3 4 -12
1 -19z m1463 -68 c1142 0 1439 3 1443 13 2 6 7 9 11 6 3 -3 4 -14 0 -23 -6
-15 -120 -16 -1455 -16 -1422 0 -1448 0 -1459 19 -15 28 -12 35 6 17 14 -14
160 -16 1454 -16z m1983 23 c-7 -2 -21 -2 -30 0 -10 3 -4 5 12 5 17 0 24 -2
18 -5z m130 0 c-7 -2 -21 -2 -30 0 -10 3 -4 5 12 5 17 0 24 -2 18 -5z m827
-303 c-19 -5 -91 -9 -160 -10 -202 -2 -219 4 -30 10 96 3 186 6 200 7 16 1 13
-2 -10 -7z m-377 -7 c-7 -2 -19 -2 -25 0 -7 3 -2 5 12 5 14 0 19 -2 13 -5z
m497 -60 c0 -4 -349 -9 -775 -10 -426 -2 -775 1 -775 6 0 4 349 9 775 10 426
1 775 -1 775 -6z m-437 -190 c-24 -2 -62 -2 -85 0 -24 2 -5 4 42 4 47 0 66 -2
43 -4z m-4726 -119 c-3 -3 -12 -4 -19 -1 -8 3 -5 6 6 6 11 1 17 -2 13 -5z
m4836 -41 c-7 -2 -19 -2 -25 0 -7 3 -2 5 12 5 14 0 19 -2 13 -5z m-3583 -52
c0 -22 -6 -42 -12 -45 -7 -4 -2 -4 12 -1 14 2 47 5 74 5 47 0 48 1 33 18 -23
25 -21 42 3 42 16 0 20 -7 20 -36 0 -29 3 -35 18 -32 9 2 16 11 14 19 -1 9 4
7 15 -6 20 -22 70 -23 88 -2 6 7 20 13 33 14 23 3 23 2 21 -96 -2 -55 -7 -98
-11 -95 -5 3 -6 14 -3 25 5 14 1 19 -12 20 -17 1 -17 2 0 6 20 5 22 19 5 26
-10 4 -9 8 2 16 13 10 13 13 -3 25 -18 14 -18 14 0 20 10 3 6 4 -10 2 -15 -2
-30 1 -33 6 -3 4 -10 5 -16 2 -6 -4 -45 -6 -88 -5 -74 2 -77 1 -76 -21 1 -25
-29 -37 -47 -19 -8 8 -6 15 7 24 17 12 10 15 -60 27 -58 10 -72 16 -54 20 30
7 38 41 15 64 -15 15 -13 16 24 16 41 0 41 0 41 -39z m-150 11 c0 -13 -9 -19
-35 -20 -27 -2 -33 1 -29 12 3 8 18 17 32 19 15 2 28 5 30 6 1 0 2 -7 2 -17z
m207 1 c3 -7 -4 -11 -16 -10 -12 1 -21 7 -21 15 0 16 32 12 37 -5z m-326 -2
c-11 -7 -9 -10 10 -14 19 -3 18 -5 -8 -6 -31 -1 -41 8 -26 22 3 4 13 7 22 7
13 0 14 -2 2 -9z m352 -21 c4 -17 0 -20 -31 -19 -37 1 -37 1 -9 11 15 5 27 14
27 19 0 16 7 10 13 -11z m-1062 -66 l3 -71 28 11 c18 7 28 19 30 36 3 17 5 12
9 -17 l5 -43 -41 -2 c-22 0 -46 -1 -53 -1 -13 1 -25 -34 -21 -63 5 -35 -11
-62 -39 -66 l-27 -4 3 79 c3 77 3 80 -17 74 -12 -3 -21 -2 -21 2 0 7 -63 15
-137 15 -24 1 -43 5 -43 10 0 4 27 6 60 4 33 -2 60 0 60 5 0 5 7 6 16 3 9 -4
22 -2 28 3 6 5 37 11 69 13 57 3 57 3 57 -25 0 -18 5 -27 12 -25 8 3 11 27 9
74 -1 38 0 67 2 64 3 -3 7 -37 8 -76z m121 41 c3 -14 1 -25 -6 -25 -6 0 -22
-3 -35 -7 -17 -4 -22 -3 -17 5 4 7 17 12 29 13 12 0 17 3 10 5 -7 3 -9 12 -6
20 8 22 20 17 25 -11z m724 10 c-3 -10 1 -15 11 -15 9 0 13 -3 9 -7 -4 -4 -22
-6 -42 -5 l-35 3 16 -31 c14 -26 27 -36 38 -27 2 1 10 -3 18 -10 16 -13 33 -6
42 17 3 8 6 -4 6 -27 1 -44 18 -93 33 -93 4 0 8 -5 8 -12 0 -9 -3 -9 -12 0 -7
7 -20 12 -30 12 -14 0 -18 -7 -16 -30 2 -33 8 -36 26 -18 9 9 12 7 12 -9 0
-11 -7 -26 -15 -33 -21 -18 -19 -40 5 -40 11 0 20 5 20 11 0 5 -5 7 -11 3 -7
-4 -10 1 -7 12 2 13 13 20 36 22 17 2 32 7 32 11 0 5 -12 6 -26 3 -20 -4 -25
-1 -20 9 3 8 9 22 12 31 5 13 9 14 21 5 40 -32 53 -49 48 -57 -3 -5 8 -4 25 1
16 6 28 15 25 19 -3 5 -1 11 5 15 5 3 10 -2 10 -13 0 -11 14 -25 36 -35 33
-16 34 -18 19 -34 -16 -15 -15 -17 7 -29 12 -7 32 -11 43 -8 16 4 17 3 5 -5
-8 -6 -24 -8 -35 -5 -19 6 -18 5 3 -15 21 -21 27 -31 17 -31 -10 0 -44 44 -39
52 6 10 1 10 -20 2 -9 -3 -13 -10 -10 -15 3 -5 -3 -6 -13 -2 -16 6 -16 5 -4
-11 8 -9 22 -16 30 -13 22 5 57 -28 40 -39 -7 -4 -10 -3 -6 3 11 17 -20 23
-33 7 -9 -10 -9 -14 -1 -14 6 0 11 6 11 13 0 6 5 4 11 -5 5 -10 21 -18 34 -18
14 0 25 7 28 18 2 9 3 7 2 -5 -2 -23 12 -33 49 -33 29 0 63 -24 48 -34 -7 -4
-12 -12 -12 -17 0 -6 5 -7 12 -3 7 4 8 3 4 -5 -6 -9 -11 -9 -23 0 -13 12 -13
14 0 24 12 9 4 14 -41 24 -32 7 -92 24 -135 38 -44 13 -81 22 -85 19 -3 -3 -6
-24 -6 -46 -1 -40 -4 -43 -48 -43 -10 0 -18 -6 -18 -13 0 -7 -4 -15 -9 -19 -6
-3 -8 4 -6 15 3 14 -1 20 -13 20 -12 0 -17 -9 -18 -30 -1 -17 1 -28 4 -26 2 3
17 -1 32 -9 15 -8 30 -12 33 -9 3 3 12 -3 19 -15 7 -12 16 -21 21 -21 4 0 5 6
1 13 -6 8 -3 8 9 -1 9 -8 20 -11 25 -8 5 3 9 -1 9 -9 0 -8 -3 -12 -6 -10 -4 2
-22 0 -41 -5 l-35 -8 38 -1 c43 -1 51 -21 8 -21 -46 0 -62 9 -52 29 14 26 -2
42 -48 48 -35 5 -41 9 -42 29 -1 13 -1 35 -2 48 -1 13 6 32 14 42 7 10 9 15 2
11 -6 -4 -14 -3 -18 3 -16 26 -25 4 -25 -61 l0 -71 -42 3 c-43 3 -43 3 -40
-29 2 -18 -1 -32 -5 -32 -5 0 -7 -18 -5 -40 4 -37 2 -40 -20 -40 -13 0 -30 6
-37 13 -11 10 -13 10 -7 0 5 -9 -3 -13 -31 -14 l-38 -1 34 -15 c19 -8 43 -12
53 -10 11 3 18 0 18 -9 0 -15 21 -15 32 1 5 6 8 6 8 -2 0 -6 -4 -15 -10 -18
-5 -3 -10 -13 -10 -21 0 -11 4 -13 17 -5 11 6 24 6 35 0 12 -7 18 -6 18 1 0 6
5 8 10 5 25 -15 5 -25 -50 -25 -41 0 -60 4 -61 13 0 10 -2 10 -6 0 -2 -7 -11
-13 -19 -13 -9 0 -12 4 -9 10 4 6 -6 8 -24 6 -28 -3 -31 -1 -31 24 0 34 -17
40 -122 40 -56 0 -78 -4 -78 -12 -1 -7 -3 -60 -6 -118 -4 -58 -3 -102 0 -99 6
5 18 87 20 136 1 15 4 18 13 12 7 -7 13 -5 15 3 3 7 4 -5 4 -27 -1 -22 4 -40
9 -41 14 0 22 -47 24 -131 1 -69 0 -71 -21 -66 -19 4 -20 3 -8 -6 8 -6 29 -11
46 -11 l30 0 -4 60 c-4 50 -2 60 12 60 9 0 17 -4 17 -10 1 -5 2 -15 3 -21 1
-15 44 -31 51 -19 7 12 -12 23 -27 14 -7 -4 -8 -3 -4 4 4 7 20 12 35 12 15 0
32 5 39 12 9 9 12 8 12 -4 0 -9 -9 -18 -20 -21 -11 -3 -20 -10 -20 -16 0 -18
56 -12 74 8 21 23 34 91 17 91 -16 0 -54 -20 -62 -32 -3 -5 -25 -12 -48 -15
-41 -6 -41 -5 -41 26 0 27 -4 31 -26 31 -25 0 -25 2 -23 58 2 52 11 71 32 72
4 0 7 -22 7 -50 0 -48 11 -63 26 -38 5 7 3 8 -7 3 -11 -7 -12 -6 -2 6 7 8 10
26 7 40 -5 21 -4 22 6 7 6 -10 16 -18 21 -18 6 0 8 4 5 9 -3 5 0 11 8 14 16 6
26 -12 26 -47 0 -15 6 -22 20 -23 16 -1 20 2 15 18 -4 13 -2 19 9 19 9 0 16
-5 16 -12 0 -9 3 -9 12 0 16 16 42 16 31 0 -4 -7 -8 -23 -9 -34 0 -16 4 -20
18 -16 14 3 18 11 14 27 -7 27 3 39 20 24 8 -7 19 -7 31 0 10 5 25 12 34 15
10 3 18 18 21 40 3 31 1 36 -17 36 -16 0 -20 6 -20 30 0 23 4 30 20 30 40 0
64 -12 58 -27 -5 -12 -7 -12 -14 -1 -5 7 -18 14 -30 14 -21 1 -21 0 -5 -11 17
-13 17 -13 -1 -18 -10 -3 -4 -5 14 -6 29 -1 63 20 63 38 0 5 -7 14 -15 21 -31
26 -16 33 53 26 41 -4 71 -12 78 -22 10 -13 12 -13 18 2 9 24 0 32 -30 26 -24
-4 -25 -3 -15 16 6 12 16 24 22 27 7 5 4 14 -7 26 -10 11 -12 19 -6 19 7 0 12
-5 12 -11 0 -5 5 -7 10 -4 6 3 13 -1 16 -9 3 -9 16 -15 29 -14 19 2 22 6 14
19 -13 26 -11 33 6 19 13 -11 18 -11 28 0 9 10 9 11 0 6 -9 -5 -11 -2 -7 9 5
12 9 13 20 4 8 -7 14 -7 14 -1 0 5 -10 17 -22 26 -13 9 -17 14 -10 10 7 -3 19
2 26 12 13 17 14 17 20 -3 4 -12 5 -26 4 -33 -4 -15 57 -20 92 -7 14 5 36 10
50 12 53 4 51 4 39 26 -9 17 -8 20 3 17 7 -3 14 -15 16 -27 2 -13 9 -20 15
-17 7 3 20 9 30 12 9 4 17 13 17 21 0 9 9 31 21 49 18 30 19 35 4 40 -20 8
-24 4 -28 -27 -4 -23 -8 -24 -73 -24 -61 0 -69 2 -72 20 -2 11 -1 17 3 13 14
-13 45 11 38 30 -4 14 -2 13 10 -3 11 -13 16 -15 17 -6 0 8 6 11 18 7 11 -4 8
1 -7 12 l-24 19 29 7 c22 6 25 9 13 17 -12 7 -12 9 2 9 12 0 15 7 11 25 -4 25
12 35 21 13 3 -7 6 0 6 15 1 16 -3 26 -8 23 -5 -3 -11 3 -14 14 -7 26 -57 46
-69 28 -9 -15 -11 -79 -2 -102 3 -9 13 -16 22 -16 28 0 -1 -17 -40 -24 -30 -6
-38 -4 -38 8 0 9 -9 21 -20 28 -11 7 -20 22 -20 33 0 17 -2 17 -10 5 -9 -13
-10 -13 -11 0 0 8 -5 4 -9 -10 -8 -24 -8 -24 -9 7 -1 17 5 34 12 36 6 3 2 6
-11 6 -19 1 -22 -3 -17 -19 5 -17 2 -20 -26 -20 -26 0 -30 3 -21 12 7 7 12 22
12 35 0 13 7 26 15 29 8 4 13 9 11 13 -7 10 43 6 53 -5 5 -5 11 -18 14 -29 4
-15 5 -13 6 8 1 21 6 27 24 27 14 0 18 -3 10 -8 -8 -5 -9 -13 -3 -22 6 -8 10
-12 11 -7 1 4 3 12 4 17 1 6 3 23 4 40 1 21 5 28 15 24 9 -3 20 4 27 18 11 21
11 22 -4 10 -12 -11 -20 -11 -34 -2 -14 9 -14 10 -2 7 26 -8 39 13 40 63 1 25
3 36 6 25 10 -47 13 -49 29 -27 26 37 43 27 46 -25 l3 -48 62 -30 c34 -16 68
-36 75 -44 14 -14 6 -12 -51 18 -19 10 -22 10 -15 -1 5 -7 9 -20 11 -28 1 -8
7 -16 12 -18 15 -5 14 -23 -1 -20 -7 2 -14 -7 -16 -20 -3 -21 -1 -22 17 -12
26 13 28 55 4 70 -16 10 -16 10 2 8 15 -2 21 -12 23 -40 3 -33 -1 -39 -28 -53
-38 -19 -37 -50 0 -50 14 0 29 5 33 10 5 6 6 1 2 -11 -3 -12 0 -26 7 -32 10
-8 14 1 16 41 2 35 9 57 22 69 23 22 27 22 27 4 0 -8 -5 -14 -10 -13 -5 1 -15
-18 -23 -43 -17 -56 -17 -52 2 -76 12 -15 15 -15 10 -2 -2 9 1 18 7 21 8 3 11
-8 9 -39 -4 -46 -30 -71 -28 -26 1 18 -7 30 -26 41 -25 14 -29 14 -55 -5 -27
-19 -73 -98 -70 -119 1 -5 -19 -14 -45 -19 -47 -9 -48 -10 -48 -47 l0 -37 -65
-7 -65 -7 6 -74 c4 -53 3 -74 -5 -74 -7 0 -10 4 -6 10 3 5 -5 16 -19 25 -14 9
-27 24 -30 33 -3 9 -4 5 -2 -10 2 -15 -1 -25 -5 -22 -4 2 -15 -6 -24 -20 -13
-20 -14 -29 -5 -48 11 -22 10 -22 -4 -4 -22 27 -20 45 7 75 l22 25 -31 -25
c-31 -24 -31 -24 -19 -75 6 -27 15 -56 19 -62 5 -8 -2 -12 -23 -12 -17 0 -31
4 -31 10 0 5 8 7 18 3 13 -5 12 -1 -6 19 -13 14 -22 34 -20 44 2 16 -3 19 -29
16 -18 -1 -33 2 -33 8 0 5 14 10 31 10 23 0 45 13 87 50 31 28 64 50 74 50 13
0 18 8 18 26 0 23 -3 25 -25 20 -14 -4 -25 -3 -25 0 0 12 49 52 52 42 2 -5 16
-11 30 -12 15 -2 25 0 23 4 -3 5 2 10 10 14 8 3 15 15 15 27 0 15 -4 19 -16
15 -9 -3 -34 -9 -56 -12 -28 -5 -42 -13 -48 -29 -12 -32 -50 -69 -90 -90 -19
-9 -44 -25 -54 -34 -18 -15 -19 -15 -13 2 4 9 2 17 -4 17 -7 0 -9 -10 -5 -23
4 -18 -5 -30 -49 -64 -50 -39 -93 -89 -84 -98 2 -2 24 -5 47 -8 39 -4 43 -2
39 14 -6 23 11 26 19 4 7 -18 51 -20 56 -3 3 7 7 6 11 -5 5 -14 0 -17 -23 -18
-17 -1 -34 -3 -40 -4 -5 -1 -64 -3 -130 -4 -105 -1 -120 -3 -120 -18 0 -25
-23 -83 -33 -83 -4 0 -4 -6 0 -14 4 -8 6 -49 3 -90 -3 -46 -1 -78 5 -80 6 -3
0 -5 -12 -5 -23 -1 -31 13 -13 24 5 3 8 33 6 65 -1 33 1 60 6 60 5 0 6 5 3 10
-7 12 -170 8 -182 -4 -3 -3 -1 -6 6 -6 8 0 11 -21 9 -72 -3 -82 -22 -103 -25
-27 -1 28 -3 52 -5 55 -2 2 -37 5 -76 6 l-72 3 0 204 0 203 55 -4 c30 -2 55
-1 55 4 0 4 -4 8 -10 8 -5 0 -10 4 -10 9 0 6 16 7 35 4 26 -4 35 -2 36 8 1 8
2 21 3 29 1 8 -3 21 -8 28 -11 15 -9 17 23 27 21 6 23 5 18 -15 -4 -16 -1 -24
13 -27 12 -3 19 -13 17 -26 -2 -18 6 -22 55 -32 55 -12 68 -11 68 6 0 9 -36
22 -67 23 -26 2 -57 26 -33 26 16 0 42 45 32 55 -3 3 -16 5 -29 5 -15 0 -22 4
-18 11 4 6 14 8 24 4 14 -5 14 -4 1 8 -19 19 -130 29 -130 12 0 -7 -3 -33 -6
-58 -6 -43 -5 -47 17 -55 18 -7 0 -11 -75 -17 l-98 -7 4 -39 4 -39 -43 0 c-24
0 -43 -5 -43 -10 0 -6 10 -9 23 -8 12 2 23 -1 24 -6 1 -5 7 -13 15 -18 10 -8
9 -9 -4 -4 -10 3 -20 1 -24 -5 -3 -6 -12 -8 -20 -5 -8 3 -14 -1 -14 -9 0 -8 7
-15 15 -15 8 0 15 5 15 10 0 6 10 10 22 10 21 0 21 -1 15 -173 l-6 -174 25 5
26 5 -4 -86 c-2 -55 1 -83 7 -79 5 3 22 5 37 3 28 -2 28 -2 28 52 0 31 3 62 6
71 4 11 -2 19 -17 25 -21 8 -18 10 19 10 l42 1 0 -120 0 -120 -57 1 c-49 0
-55 2 -35 11 34 17 29 42 -8 35 -36 -8 -58 20 -40 52 12 24 13 143 1 121 -5
-8 -12 -40 -15 -70 -4 -30 -12 -57 -18 -61 -17 -11 -19 -59 -2 -59 12 0 12 -4
3 -21 -6 -12 -7 -25 -2 -29 4 -5 46 -11 93 -13 83 -5 85 -5 87 -31 1 -16 -2
-24 -8 -20 -6 3 -8 12 -5 20 3 8 2 14 -3 14 -12 0 -20 -62 -10 -80 7 -13 8
-12 9 3 0 9 5 17 10 17 6 0 10 -4 10 -9 0 -5 3 -16 6 -24 4 -10 -4 -16 -25
-19 l-31 -5 0 56 0 56 -87 -3 -88 -4 7 104 c4 56 10 138 14 180 7 91 3 108
-25 101 -19 -5 -21 -13 -21 -79 0 -63 3 -74 18 -76 9 -1 -28 -4 -83 -7 l-100
-6 -6 -35 -6 -35 -2 43 c-1 38 -3 42 -26 42 -20 0 -25 5 -25 26 0 14 4 23 10
19 6 -3 10 -1 10 5 0 6 -7 13 -16 17 -15 5 -15 7 0 15 11 6 14 17 10 34 -6 23
-4 25 22 22 28 -3 29 -1 30 37 1 45 1 45 45 45 27 0 30 -2 19 -15 -7 -8 -22
-15 -34 -16 -11 0 -15 -3 -8 -6 6 -2 12 -13 12 -24 0 -15 7 -19 35 -19 32 0
35 -2 29 -24 -4 -17 0 -27 13 -35 17 -10 16 -11 -5 -17 -18 -5 -20 -9 -10 -15
9 -6 7 -9 -9 -9 -14 0 -23 -6 -23 -15 0 -8 9 -15 20 -15 11 0 20 5 20 10 0 6
4 10 10 10 5 0 7 -7 4 -15 -4 -10 0 -15 11 -15 12 0 15 5 10 21 -5 15 -4 19 4
15 12 -8 15 16 4 28 -4 4 -6 25 -4 46 2 31 -1 40 -13 40 -9 0 -17 5 -17 10 -1
6 -2 15 -3 20 0 6 -8 15 -16 20 -12 8 -10 10 10 10 l25 0 -23 18 c-17 13 -20
20 -11 29 13 13 14 20 25 151 l7 82 -30 0 c-22 0 -33 -6 -41 -25 -15 -33 -15
-95 -1 -95 7 0 10 13 7 34 -3 27 0 36 14 39 10 3 18 2 19 -1 0 -4 2 -23 5 -43
5 -43 1 -44 -114 -55 l-72 -7 -6 -34 c-4 -19 -4 -52 -1 -74 4 -32 2 -39 -9
-35 -9 3 -14 -1 -14 -14 0 -16 -7 -20 -35 -20 -28 0 -35 4 -35 20 0 11 7 20
16 20 8 0 13 -4 10 -9 -3 -5 1 -11 9 -15 13 -4 15 8 15 75 0 68 2 80 15 75 8
-3 15 -1 15 4 0 6 -7 10 -16 10 -8 0 -12 5 -9 10 3 6 1 10 -4 10 -6 0 -11 -4
-11 -10 0 -5 -9 -10 -20 -10 -11 0 -20 5 -20 10 0 6 7 10 15 10 8 0 17 11 21
25 9 36 44 34 41 -2 -2 -28 -1 -28 48 -25 28 2 55 8 60 13 7 7 4 8 -6 4 -14
-5 -18 2 -20 44 -5 64 -1 77 16 54 7 -10 17 -15 21 -11 4 4 1 15 -7 25 -13 15
-12 15 12 0 l26 -17 -4 52 c-4 60 -19 83 -34 56 -6 -11 -22 -18 -39 -18 -26 0
-30 -4 -30 -29 0 -26 -3 -29 -46 -35 -26 -3 -59 -6 -74 -6 -22 0 -29 -6 -37
-32 -10 -30 -10 -28 -6 18 4 38 0 61 -16 94 -24 50 -26 64 -8 54 7 -5 7 -1 -2
10 -13 16 -15 16 -24 1 -5 -9 -9 -47 -10 -84 -2 -56 -5 -67 -19 -68 -20 -2
-22 34 -9 140 4 32 4 60 -1 63 -4 3 -8 10 -8 16 0 7 4 7 13 0 15 -13 54 16 54
41 0 12 -9 17 -29 17 -25 0 -27 3 -19 18 8 14 5 23 -10 35 -10 9 -24 17 -30
17 -5 0 -7 5 -4 10 3 6 0 10 -8 10 -25 0 -14 -29 14 -39 20 -7 26 -14 23 -29
-3 -10 -11 -19 -17 -19 -7 0 -21 -4 -32 -7 -15 -5 -15 -4 3 5 23 13 29 34 11
44 -6 4 -9 0 -7 -10 2 -10 -3 -20 -9 -22 -7 -3 -13 2 -13 11 0 19 -19 21 -25
4 -2 -7 -5 -43 -7 -79 -3 -47 0 -65 8 -62 8 3 9 -10 4 -44 -4 -26 -6 -51 -4
-54 2 -3 -7 -16 -19 -27 -15 -14 -27 -18 -37 -12 -11 7 -14 45 -15 197 -1 112
1 172 6 148 4 -22 9 -107 10 -188 3 -123 5 -147 18 -145 14 3 27 48 13 48 -4
0 -8 50 -8 110 -1 95 1 110 15 111 13 0 13 2 -3 8 -13 5 -19 19 -20 53 -1 26
2 44 6 42 4 -3 8 -20 8 -38 0 -43 22 -63 44 -41 12 13 13 20 4 41 -13 29 0 44
39 44 16 0 24 -9 32 -37 l11 -38 -5 43 c-5 37 -3 42 15 42 34 0 22 20 -12 21
-57 2 -121 -1 -170 -7 -44 -5 -48 -4 -54 20 -7 30 -33 34 -85 12 -19 -7 -62
-14 -97 -15 l-63 -1 2 57 c1 32 4 52 6 46 3 -7 11 -13 19 -13 9 0 12 5 9 10
-3 6 -2 10 3 10 13 0 22 -25 22 -64 0 -30 3 -33 24 -29 21 4 25 11 28 54 3 43
1 49 -17 50 -16 0 -14 3 7 11 23 8 26 13 18 28 -6 11 -17 17 -25 14 -8 -4 -15
-1 -15 5 0 6 6 12 13 12 6 1 22 3 34 4 21 2 21 -1 18 -76 -2 -44 -1 -79 3 -79
24 1 39 29 44 76 1 7 11 11 24 9 16 -1 21 2 16 13 -4 10 -1 13 7 8 7 -5 18 -1
25 9 12 17 13 17 20 0 4 -11 1 -22 -6 -27 -8 -5 -9 -8 -2 -8 7 0 11 -20 9 -55
-2 -54 7 -77 20 -55 3 5 26 10 50 10 34 0 47 5 55 20 11 20 37 18 52 -4 4 -6
7 1 6 16 -1 15 -6 24 -10 22 -5 -3 -11 2 -14 10 -3 9 -18 16 -32 16 -19 0 -23
3 -15 11 6 6 9 18 6 25 -3 8 0 14 7 14 7 0 10 -8 7 -20 -6 -24 2 -26 18 -3 11
14 13 13 19 -11 4 -15 11 -24 16 -21 6 4 10 -8 10 -28 0 -40 8 -51 27 -36 10
9 13 8 13 -3 0 -23 33 -48 57 -42 11 3 30 19 42 35 14 19 37 33 66 40 62 16
58 33 -6 26 -37 -5 -49 -3 -46 6 2 7 12 13 23 15 10 1 38 8 62 14 35 9 42 15
42 35 0 19 4 24 16 19 9 -3 20 -6 25 -6 5 0 9 -9 9 -21 0 -11 5 -17 10 -14 6
3 10 14 10 23 0 27 40 26 41 -1 1 -17 2 -18 6 -4 2 9 9 17 14 17 5 0 10 -8 10
-17 1 -17 2 -17 6 0 2 9 9 17 14 17 5 0 9 5 9 10 0 6 -31 10 -74 10 -41 0 -77
3 -79 8 -3 4 16 7 41 8 114 1 309 12 325 19 25 11 21 25 -9 25 -14 0 -23 4
-20 9 4 5 0 12 -6 14 -14 6 99 -2 118 -8 6 -2 26 -30 44 -62 36 -63 49 -58 31
12 -18 72 -16 77 27 74 21 -2 44 1 52 6 8 5 15 4 17 -2 4 -10 78 -2 90 11 11
11 15 7 9 -9z m-1152 -3 c3 -5 23 -8 46 -8 22 1 40 -2 40 -7 0 -4 15 -6 34 -4
25 3 33 1 29 -9 -7 -18 -19 -19 -174 -16 -130 3 -139 4 -139 22 0 15 6 19 25
18 15 -2 24 -7 21 -15 -3 -8 8 -12 37 -11 30 0 36 3 22 8 -11 4 -26 5 -34 2
-10 -4 -12 -1 -6 7 5 9 19 11 41 8 19 -3 34 -2 34 4 0 11 17 12 24 1z m516
-15 c0 -17 -1 -17 -16 -3 -20 21 -31 20 -37 -1 -4 -14 -5 -12 -6 5 -1 19 4 22
29 20 22 -2 30 -7 30 -21z m60 8 c5 3 11 1 14 -4 3 -5 -3 -11 -14 -14 -16 -4
-20 0 -19 16 0 12 3 16 6 9 2 -6 9 -10 13 -7z m130 -5 c0 -11 -4 -20 -10 -20
-5 0 -10 4 -10 10 0 5 -8 7 -17 3 -15 -5 -14 -3 2 10 27 22 35 21 35 -3z
m-475 -28 c-3 -3 -11 0 -18 7 -9 10 -8 11 6 5 10 -3 15 -9 12 -12z m125 8 c0
-5 -8 -10 -17 -10 -15 0 -16 2 -3 10 19 12 20 12 20 0z m906 -28 c-10 -2 -22
0 -28 6 -6 6 0 7 19 4 21 -5 23 -7 9 -10z m271 -14 c-3 -7 -5 -2 -5 12 0 14 2
19 5 13 2 -7 2 -19 0 -25z m266 25 c-7 -2 -21 -2 -30 0 -10 3 -4 5 12 5 17 0
24 -2 18 -5z m-406 -25 c-3 -8 -6 -5 -6 6 -1 11 2 17 5 13 3 -3 4 -12 1 -19z
m-1527 -18 c0 -5 -8 -10 -17 -10 -15 0 -16 2 -3 10 19 12 20 12 20 0z m1974
-44 c-3 -9 -10 -16 -15 -16 -5 0 -4 9 3 20 14 22 21 20 12 -4z m-1828 -16 c-1
-19 3 -31 13 -33 9 -3 -3 -5 -26 -6 -38 -1 -43 2 -43 20 0 18 2 19 15 9 12
-10 15 -9 15 7 0 11 3 23 7 26 14 14 21 6 19 -23z m1536 -16 l4 -34 -46 1
c-25 0 -38 3 -30 6 22 9 31 25 25 49 -4 18 -1 20 19 17 19 -4 25 -13 28 -39z
m-1948 -29 c-25 -19 -34 -18 -34 0 0 18 43 38 49 23 1 -5 -5 -16 -15 -23z
m1757 1 c-10 -11 -8 -15 6 -19 16 -4 16 -5 1 -6 -9 0 -20 4 -23 9 -8 12 2 30
17 30 7 0 6 -5 -1 -14z m714 -6 c3 -5 -2 -10 -12 -10 -15 0 -16 -2 -3 -10 8
-5 11 -12 7 -16 -11 -12 -30 13 -24 30 7 18 23 21 32 6z m-2325 -10 c0 -5 -4
-10 -10 -10 -5 0 -10 5 -10 10 0 6 5 10 10 10 6 0 10 -4 10 -10z m223 -3 c3
-8 1 -20 -4 -28 -6 -10 -9 -7 -9 14 0 29 5 35 13 14z m-368 -7 c4 -6 -6 -10
-22 -9 -25 0 -26 1 -8 9 11 5 21 9 22 9 1 1 5 -3 8 -9z m31 -94 c9 -4 22 -3
28 1 17 12 49 9 53 -4 3 -9 -4 -11 -28 -6 -23 4 -30 3 -25 -5 4 -7 23 -12 43
-12 30 0 35 3 30 20 -4 14 0 19 11 17 33 -5 37 -16 37 -106 0 -50 3 -91 8 -91
4 0 7 17 8 38 0 20 3 30 6 22 4 -8 12 -20 19 -27 9 -10 12 -8 12 10 -2 67 6
147 13 147 5 0 9 -12 9 -27 0 -16 2 -59 4 -98 4 -53 3 -60 -3 -30 l-8 40 -2
-35 c0 -20 4 -41 10 -47 5 -5 12 -57 14 -114 3 -66 1 -97 -5 -84 -5 11 -10 56
-11 100 l-3 80 -5 -100 -6 -100 -87 -3 c-49 -1 -88 -7 -88 -12 0 -6 5 -10 10
-10 6 0 10 -18 10 -39 0 -49 8 -71 27 -71 8 0 11 -5 7 -12 -4 -7 -3 -8 5 -4 7
5 9 16 5 28 -4 13 -2 18 4 14 7 -4 8 3 2 23 -6 22 -4 33 6 42 18 14 94 29 94
18 0 -4 -17 -9 -37 -11 -21 -2 -37 -6 -35 -10 1 -5 2 -26 2 -48 0 -39 1 -40
33 -39 29 0 30 1 10 9 -28 11 -30 30 -4 30 11 0 23 5 27 12 4 6 3 9 -2 6 -5
-3 -18 -2 -29 3 -19 7 -19 8 2 8 12 1 24 5 28 11 3 5 13 6 22 3 11 -4 14 -3 9
5 -4 7 -1 12 9 12 9 0 14 4 11 9 -3 5 1 12 10 15 8 3 12 2 9 -4 -3 -6 -2 -10
4 -10 6 0 8 -8 4 -17 -3 -11 1 -9 12 6 14 19 24 22 52 18 24 -4 32 -3 27 6 -4
7 -4 9 1 5 5 -5 10 -23 11 -40 7 -66 15 -98 25 -93 5 4 9 27 9 51 0 50 22 59
28 11 3 -24 8 -27 40 -28 20 0 46 -4 57 -8 11 -5 25 -4 32 1 13 11 53 2 53
-12 0 -4 -8 -6 -17 -4 -10 3 -36 1 -58 -5 l-40 -9 48 -1 c84 -2 50 -20 -38
-20 -73 0 -85 2 -86 17 -1 16 -2 16 -6 0 -3 -13 -14 -18 -36 -18 -22 0 -28 3
-18 9 8 5 9 11 3 15 -5 3 -7 26 -4 51 5 45 4 45 -26 45 -17 0 -38 -7 -46 -16
-23 -22 -20 -37 3 -24 29 15 40 12 34 -10 -3 -11 -1 -20 4 -20 11 0 10 -21 -2
-57 -4 -13 -11 -20 -16 -18 -4 3 -5 13 -2 21 5 13 1 15 -16 9 -14 -4 -23 -2
-27 8 -5 13 -9 13 -31 2 -15 -8 -43 -17 -64 -20 -29 -5 -37 -10 -32 -23 4 -14
3 -15 -5 -2 -9 12 -14 11 -34 -5 -12 -11 -29 -29 -37 -39 -8 -11 -22 -27 -32
-37 -9 -9 -18 -22 -21 -30 -3 -9 -6 -10 -11 -2 -4 6 -1 18 7 26 8 8 12 18 8
22 -4 5 -2 5 4 2 10 -5 84 73 84 89 0 10 -72 -5 -107 -24 -32 -16 -43 -32 -23
-32 6 0 10 -5 10 -11 0 -22 -24 -2 -32 26 -8 33 -2 47 12 25 7 -11 10 -7 10
16 0 29 -15 54 -33 54 -5 0 -4 -7 3 -15 7 -9 10 -18 6 -22 -8 -8 -13 -2 -18
22 -2 15 2 20 20 19 28 -1 28 2 -3 29 -13 12 -27 36 -31 52 -6 29 -6 29 11 10
9 -11 14 -14 10 -7 -4 8 2 12 19 12 13 0 26 -5 28 -12 3 -7 7 -6 11 5 5 12 1
17 -14 17 -12 0 -23 10 -30 27 -12 32 -2 124 15 136 6 4 -20 6 -59 5 -52 -2
-69 -6 -67 -16 1 -8 -2 -11 -8 -7 -5 3 -10 15 -10 25 0 16 9 18 80 19 l80 0 0
-34 c0 -18 -5 -37 -11 -41 -15 -9 4 -27 31 -29 23 -2 26 14 8 35 -11 12 -10
12 5 1 9 -7 17 -22 17 -32 0 -10 5 -21 10 -24 6 -4 10 12 10 40 0 42 2 46 20
40 11 -4 20 -2 20 4 0 6 9 11 20 11 18 0 20 -7 20 -76 0 -63 3 -75 16 -72 12
2 16 20 19 83 1 44 6 88 10 98 5 12 2 17 -9 17 -9 0 -16 -7 -16 -17 0 -15 -2
-15 -19 1 -11 10 -25 31 -31 47 -7 16 -17 29 -22 29 -5 0 -6 5 -2 12 5 7 8 31
9 54 l0 41 -47 0 -48 0 0 -54 c0 -48 -2 -55 -17 -51 -13 4 -18 -2 -20 -20 0
-13 -6 -29 -13 -36 -8 -8 -11 13 -9 87 1 62 -3 103 -10 110 -17 17 -14 48 4
41 9 -4 18 1 22 12 6 15 8 13 15 -13 4 -17 15 -34 24 -37z m2308 15 c-16 -14
-17 -14 -6 0 7 9 10 25 6 35 -5 18 -5 18 6 0 10 -15 9 -21 -6 -35z m126 39 c0
-5 -4 -10 -10 -10 -5 0 -10 5 -10 10 0 6 5 10 10 10 6 0 10 -4 10 -10z m-2574
-75 c-6 -23 -5 -24 12 -14 21 13 52 6 52 -11 0 -5 -13 -10 -29 -10 -27 0 -30
-3 -36 -49 -7 -52 0 -91 16 -91 5 0 9 4 9 9 0 13 38 2 43 -12 3 -8 -9 -11 -39
-8 l-44 3 0 82 c0 78 7 126 17 126 3 0 2 -11 -1 -25z m2444 0 c0 -8 -4 -15
-10 -15 -5 0 -7 7 -4 15 4 8 8 15 10 15 2 0 4 -7 4 -15z m-1913 -17 c-3 -8 -6
-5 -6 6 -1 11 2 17 5 13 3 -3 4 -12 1 -19z m-92 -10 c3 -13 5 -66 3 -118 -2
-69 -6 -94 -15 -92 -7 1 -13 -5 -13 -13 0 -8 5 -15 10 -15 6 0 10 -15 10 -32
0 -25 -3 -29 -10 -18 -5 8 -10 11 -11 5 -6 -35 -13 99 -11 193 3 89 6 112 17
112 8 0 17 -10 20 -22z m-120 2 c3 -5 2 -10 -4 -10 -5 0 -13 5 -16 10 -3 6 -2
10 4 10 5 0 13 -4 16 -10z m-128 -67 c9 -7 14 -16 10 -19 -12 -12 -37 25 -36
53 2 27 2 27 6 3 2 -14 12 -31 20 -37z m340 35 c-3 -8 -6 -5 -6 6 -1 11 2 17
5 13 3 -3 4 -12 1 -19z m4786 15 c-200 -2 -526 -2 -725 0 -200 1 -37 2 362 2
399 0 562 -1 363 -2z m-2685 -75 l-3 -63 -39 -3 c-21 -2 -43 1 -48 6 -7 7 -5
10 3 9 44 -2 79 4 74 12 -3 6 -19 8 -35 6 -16 -2 -32 1 -36 6 -3 5 -10 7 -15
4 -5 -4 -9 -1 -9 4 0 6 20 9 50 8 l50 -3 0 33 c0 23 -5 33 -15 33 -8 0 -15 -7
-15 -15 0 -20 -10 -19 -26 3 -12 16 -13 15 -14 -5 0 -28 -26 -30 -33 -4 -7 28
-1 31 60 31 l54 0 -3 -62z m-2593 23 c3 -5 1 -12 -5 -16 -5 -3 -10 1 -10 9 0
18 6 21 15 7z m2090 -34 c7 -6 2 -7 -15 -3 -14 4 -31 8 -37 8 -7 1 -13 5 -13
10 0 10 51 -1 65 -15z m472 17 c-3 -3 -12 -4 -19 -1 -8 3 -5 6 6 6 11 1 17 -2
13 -5z m-2430 -51 c-3 -10 -5 -4 -5 12 0 17 2 24 5 18 2 -7 2 -21 0 -30z
m2230 15 c-3 -8 -6 -5 -6 6 -1 11 2 17 5 13 3 -3 4 -12 1 -19z m47 0 c4 4 6 0
4 -8 -2 -11 5 -14 27 -13 22 2 26 0 15 -7 -10 -6 -11 -10 -2 -10 6 0 12 -10
12 -21 0 -15 -4 -19 -13 -13 -7 5 -4 1 6 -8 19 -18 18 -18 -10 -18 -22 0 -29
5 -30 22 -1 11 -7 24 -14 28 -6 4 -9 12 -5 18 3 5 -1 12 -9 16 -8 3 -15 11
-15 17 0 8 4 9 13 0 8 -6 17 -7 21 -3z m-2247 -23 c0 -8 -4 -12 -9 -9 -4 3 -8
9 -8 15 0 5 4 9 8 9 5 0 9 -7 9 -15z m1683 -5 c8 -5 11 -10 5 -10 -5 0 -17 5
-25 10 -8 5 -10 10 -5 10 6 0 17 -5 25 -10z m40 -15 c-7 -8 -16 -15 -21 -15
-5 0 -1 9 8 20 9 11 19 17 21 15 3 -3 -1 -11 -8 -20z m470 10 c24 -13 24 -14
4 -15 -12 0 -27 7 -34 15 -16 19 -3 19 30 0z m-1793 -17 c-3 -8 -6 -5 -6 6 -1
11 2 17 5 13 3 -3 4 -12 1 -19z m1590 16 c-3 -3 -12 -4 -19 -1 -8 3 -5 6 6 6
11 1 17 -2 13 -5z m-2012 -24 c3 -5 1 -10 -4 -10 -6 0 -11 5 -11 10 0 6 2 10
4 10 3 0 8 -4 11 -10z m1652 4 c-3 -3 -12 -4 -19 -1 -8 3 -5 6 6 6 11 1 17 -2
13 -5z m343 -4 c0 -5 -5 -10 -11 -10 -5 0 -7 5 -4 10 3 6 8 10 11 10 2 0 4 -4
4 -10z m-290 -4 c0 -2 -7 -7 -16 -10 -8 -3 -12 -2 -9 4 6 10 25 14 25 6z m526
-32 c-5 -24 -2 -33 10 -38 12 -5 15 0 14 22 -4 53 2 56 16 11 8 -26 20 -49 28
-52 16 -6 17 24 1 35 -6 5 -6 8 1 8 24 0 35 -29 31 -80 -4 -49 -17 -69 -43
-70 -7 0 -15 -10 -20 -22 -6 -17 -9 -2 -11 50 l-4 72 -54 0 c-51 0 -55 -2 -55
-24 0 -13 -6 -27 -12 -29 -10 -4 -10 -8 1 -15 9 -7 10 -12 2 -16 -6 -4 -11
-20 -11 -37 0 -16 -5 -29 -11 -29 -8 0 -9 22 -4 73 9 101 12 109 35 97 16 -8
18 -8 14 5 -4 8 -10 15 -15 15 -5 0 -9 5 -9 11 0 6 9 9 20 6 15 -4 20 0 20 16
0 20 0 21 16 1 8 -10 13 -13 9 -6 -3 6 -1 12 5 12 6 0 9 4 6 8 -3 5 2 9 10 9
12 0 14 -8 10 -33z m-452 17 c4 -5 -3 -7 -14 -4 -23 6 -26 13 -6 13 8 0 17 -4
20 -9z m-1378 -70 c-4 -42 -2 -61 7 -64 7 -3 2 -6 -10 -6 -17 -1 -23 5 -23 19
0 11 4 20 8 20 5 0 6 20 2 45 -5 35 -4 45 7 45 11 0 13 -13 9 -59z m842 52
c-10 -2 -26 -2 -35 0 -10 3 -2 5 17 5 19 0 27 -2 18 -5z m520 -18 c-3 -3 -9 2
-12 12 -6 14 -5 15 5 6 7 -7 10 -15 7 -18z m-1929 -29 c-9 -8 -10 -7 -5 7 3
10 7 24 7 30 1 7 3 4 6 -7 3 -10 -1 -23 -8 -30z m1468 7 c3 -7 -4 -9 -16 -6
-12 3 -18 9 -15 15 7 11 26 6 31 -9z m161 -4 c38 -13 33 -29 -9 -29 -22 0 -29
5 -29 20 0 23 -2 23 38 9z m-1618 -111 c3 -125 -1 -155 -19 -144 -4 3 -5 26
-1 51 6 41 5 45 -12 40 -12 -4 -18 -1 -18 9 0 9 9 16 20 16 13 0 20 7 20 19 0
11 -6 18 -16 17 -9 0 -19 4 -21 11 -3 7 3 9 16 6 17 -4 21 -1 21 21 0 14 2 26
4 26 2 0 5 -33 6 -72z m406 15 c-14 -14 -23 4 -13 27 l10 25 5 -23 c2 -13 1
-26 -2 -29z m264 17 c0 -5 -5 -10 -11 -10 -5 0 -7 5 -4 10 3 6 8 10 11 10 2 0
4 -4 4 -10z m0 -51 c0 -6 -4 -7 -10 -4 -5 3 -10 11 -10 16 0 6 5 7 10 4 6 -3
10 -11 10 -16z m-40 -34 c0 -8 -7 -15 -15 -15 -26 0 -18 20 13 29 1 1 2 -6 2
-14z m40 -1 c0 -8 -4 -12 -10 -9 -5 3 -10 10 -10 16 0 5 5 9 10 9 6 0 10 -7
10 -16z m-643 -41 c-3 -10 -5 -4 -5 12 0 17 2 24 5 18 2 -7 2 -21 0 -30z
m2033 -45 c0 -18 -16 -6 -35 25 -30 50 -29 55 4 17 17 -19 31 -38 31 -42z
m245 -8 c4 -35 3 -51 -3 -45 -11 12 -23 91 -14 99 8 9 10 5 17 -54z m-138 18
c-3 -8 -6 -5 -6 6 -1 11 2 17 5 13 3 -3 4 -12 1 -19z m-2130 -65 c-2 -16 -4
-3 -4 27 0 30 2 43 4 28 2 -16 2 -40 0 -55z m1755 54 c-12 -6 -25 -7 -29 -3
-11 10 18 25 35 18 13 -4 11 -8 -6 -15z m68 -17 c0 -11 -2 -20 -4 -20 -2 0 -6
9 -9 20 -3 11 -1 20 4 20 5 0 9 -9 9 -20z m-1544 -41 c1 -5 2 -12 3 -15 0 -4
7 -1 15 5 9 8 16 9 21 2 9 -16 -44 -26 -58 -11 -9 10 -9 14 1 17 6 3 9 10 5
16 -3 7 -2 8 3 4 5 -5 10 -13 10 -18z m254 11 c8 -5 12 -10 9 -10 -3 0 -3 -20
1 -45 7 -48 10 -46 -55 -49 -16 -1 -20 -9 -21 -43 -2 -40 0 -42 30 -45 27 -3
31 -7 33 -33 l2 -30 -14 30 c-8 17 -15 23 -15 15 -1 -10 -3 -11 -7 -2 -2 6
-10 12 -16 12 -6 0 -22 12 -34 27 -20 22 -21 29 -10 42 8 9 17 23 21 31 5 10
3 10 -5 -1 -10 -14 -17 -15 -36 -6 -13 5 -23 17 -23 26 1 14 2 13 11 -1 9 -17
12 -17 39 -3 23 12 30 13 30 3 0 -9 3 -8 10 2 5 8 10 11 10 7 0 -5 5 -5 10 -2
6 4 7 12 3 18 -12 19 -12 67 1 67 6 0 18 -5 26 -10z m1460 -5 c6 -8 10 -19 8
-24 -1 -5 -11 2 -21 15 -19 26 -8 34 13 9z m-1528 -9 c-2 -5 2 -13 10 -17 9
-6 7 -9 -9 -9 -12 0 -27 9 -33 21 -10 18 -9 20 12 17 13 -2 21 -7 20 -12z
m488 -27 c0 -22 -4 -38 -8 -35 -8 5 -4 76 4 76 2 0 4 -18 4 -41z m-556 12 c17
-19 17 -19 -1 -17 -10 2 -19 10 -21 19 -4 22 1 21 22 -2z m195 -8 c2 -2 -3 -3
-11 -3 -9 0 -19 7 -22 16 -6 15 -4 15 11 3 10 -7 20 -15 22 -16z m329 -18 c-3
-3 -9 2 -12 12 -6 14 -5 15 5 6 7 -7 10 -15 7 -18z m1009 -7 l17 -33 7 30 c5
25 7 21 8 -22 0 -28 -2 -54 -7 -56 -15 -10 -65 42 -67 68 l-1 26 17 -23 c10
-12 15 -27 12 -32 -3 -5 -1 -6 5 -2 5 3 12 0 15 -6 2 -7 8 -10 12 -6 4 4 -4
21 -19 38 -14 17 -26 36 -26 41 0 17 10 9 27 -23z m-1267 -19 c0 -24 4 -38 10
-34 6 3 10 -2 10 -13 0 -10 -7 -19 -15 -19 -11 0 -15 12 -15 44 0 36 -4 45
-22 53 -22 8 -22 9 5 9 25 1 27 -2 27 -40z m50 15 c0 -8 -4 -14 -10 -14 -5 0
-10 9 -10 21 0 11 5 17 10 14 6 -3 10 -13 10 -21z m-730 6 c0 -5 -5 -10 -11
-10 -5 0 -7 5 -4 10 3 6 8 10 11 10 2 0 4 -4 4 -10z m344 -12 c-1 -13 -3 -29
-3 -36 -1 -7 -5 -10 -11 -7 -5 3 -8 16 -6 28 3 12 5 25 5 30 1 4 5 7 9 7 5 0
8 -10 6 -22z m1406 -2 c0 -14 4 -27 9 -30 5 -3 7 -15 4 -25 -3 -13 2 -21 16
-26 12 -3 21 -13 21 -21 0 -8 4 -14 10 -14 5 0 7 7 4 15 -4 11 0 15 16 15 19
0 22 4 18 29 -2 17 -1 28 3 25 4 -2 10 0 13 5 3 5 -3 11 -14 14 -15 4 -20 0
-20 -14 0 -10 -6 -19 -14 -19 -19 0 -29 17 -16 25 6 4 7 11 4 17 -4 6 -2 8 4
4 6 -3 13 -2 16 3 4 5 -2 12 -11 14 -10 3 -2 5 18 6 52 1 62 -15 53 -88 l-7
-61 -58 0 c-62 0 -63 -1 -59 -51 1 -22 -4 -27 -27 -32 -31 -6 -43 5 -43 43 0
14 -4 32 -9 39 -6 9 -6 22 0 33 7 12 6 18 -1 18 -6 0 -9 4 -6 8 2 4 0 14 -5
22 -8 11 -9 4 -4 -22 3 -22 2 -38 -4 -38 -5 0 -12 -6 -14 -12 -2 -7 -3 0 -1
15 2 17 0 26 -6 22 -6 -3 -10 1 -10 9 0 10 -6 13 -17 10 -17 -5 -17 -5 0 6 9
6 22 8 27 5 6 -3 10 3 10 14 0 28 20 37 27 12 3 -11 10 -18 15 -15 5 3 9 -2 8
-12 -5 -42 0 -48 17 -24 9 14 22 29 27 33 7 5 2 7 -11 4 -20 -5 -23 -1 -23 29
0 27 4 34 20 34 15 0 20 -7 20 -24z m-1363 -8 c-3 -8 -6 -5 -6 6 -1 11 2 17 5
13 3 -3 4 -12 1 -19z m231 -10 c5 -18 10 -25 11 -15 2 27 18 20 24 -10 6 -33
9 -30 -28 -35 -28 -3 -30 -1 -36 40 -3 23 -3 44 -1 47 11 11 20 3 30 -27z
m973 -101 c1 -64 5 -117 9 -117 9 0 36 31 43 50 4 12 6 12 6 -1 1 -9 -12 -31
-28 -48 -21 -23 -27 -37 -23 -58 3 -21 2 -25 -7 -17 -15 14 -26 184 -17 258 4
32 9 56 11 54 2 -2 5 -56 6 -121z m59 119 c0 -3 -4 -8 -10 -11 -5 -3 -10 -1
-10 4 0 6 5 11 10 11 6 0 10 -2 10 -4z m-784 -40 c3 -8 4 -22 2 -31 -2 -12 -7
-7 -15 14 -6 18 -7 31 -2 31 5 0 12 -6 15 -14z m-639 -53 c-3 -10 -5 -4 -5 12
0 17 2 24 5 18 2 -7 2 -21 0 -30z m189 -18 c8 -43 7 -55 -3 -55 -7 0 -13 8
-13 18 0 9 -9 23 -21 30 -19 12 -20 11 -17 -10 2 -13 9 -22 16 -20 6 1 12 -2
12 -8 0 -5 -13 -10 -30 -10 -26 0 -30 3 -29 28 l1 27 8 -25 c8 -24 8 -24 9 6
1 16 -4 35 -9 40 -7 7 -6 11 4 11 8 0 17 -6 20 -14 7 -17 22 -17 30 2 3 8 2
14 -2 14 -16 -3 -23 2 -17 11 15 24 31 6 41 -45z m39 -5 c-3 -5 -2 -10 3 -10
10 0 24 -41 17 -48 -2 -3 -9 7 -14 22 -6 14 -15 26 -21 26 -6 0 -8 5 -5 10 3
6 11 10 16 10 6 0 7 -4 4 -10z m215 -7 c0 -10 5 -11 19 -4 16 9 19 6 25 -21 9
-47 7 -88 -5 -88 -7 0 -9 10 -5 24 5 19 0 32 -19 50 -14 14 -25 31 -25 37 0
16 -15 1 -15 -14 -1 -7 4 -15 10 -19 6 -5 5 -8 -3 -8 -7 0 -17 10 -22 23 -9
23 -9 23 -16 -37 -6 -62 -14 -55 -14 12 l0 61 35 -1 c22 -1 35 -6 35 -15z
m118 -64 c-2 -22 -7 -39 -13 -39 -6 0 -9 25 -6 62 3 51 5 58 12 39 5 -13 8
-41 7 -62z m-200 46 c-1 -14 -5 -25 -9 -25 -3 0 -11 11 -17 25 -10 22 -9 25 8
25 15 0 19 -6 18 -25z m842 8 c0 -15 2 -14 14 2 13 17 14 10 10 -60 -2 -43 -9
-84 -14 -89 -7 -7 -10 -4 -10 7 0 10 -7 20 -15 23 -8 4 -12 10 -9 15 3 5 -6 4
-19 -2 l-25 -11 2 -189 c1 -144 4 -189 14 -189 6 0 12 -4 12 -10 0 -5 -7 -7
-15 -4 -12 5 -15 -6 -15 -66 0 -63 2 -71 15 -60 12 10 15 9 15 -4 0 -9 -7 -19
-15 -22 -11 -5 -15 -23 -15 -76 0 -66 2 -71 35 -106 19 -20 35 -41 35 -47 0
-11 -5 -6 -53 52 l-34 41 -1 327 c-1 179 -4 330 -7 336 -8 12 45 55 63 51 7
-2 12 3 11 10 -4 35 2 88 11 88 6 0 10 -8 10 -17z m200 -23 c12 -7 10 -9 -8
-7 -12 0 -22 5 -22 9 0 11 12 10 30 -2z m331 8 c7 -32 9 -202 3 -275 l-9 -98
-6 165 c-3 91 -9 175 -13 188 -7 17 -5 22 8 22 9 0 16 -1 17 -2z m-2324 -80
c-2 -13 -4 -3 -4 22 0 25 2 35 4 23 2 -13 2 -33 0 -45z m1047 54 c2 -4 -4 -14
-16 -21 -16 -10 -19 -10 -12 1 6 10 4 10 -9 -1 -15 -12 -17 -11 -17 2 0 13 12
21 42 26 4 0 9 -3 12 -7z m-329 -30 c-3 -3 1 -12 8 -21 11 -14 10 -14 -6 -2
-9 8 -15 16 -12 19 3 3 -1 12 -8 21 -11 14 -10 14 6 2 9 -8 15 -16 12 -19z
m1252 6 c-3 -8 -6 -5 -6 6 -1 11 2 17 5 13 3 -3 4 -12 1 -19z m-1067 -2 c0 -3
-4 -8 -10 -11 -5 -3 -10 -1 -10 4 0 6 5 11 10 11 6 0 10 -2 10 -4z m-91 -111
l-6 -90 -1 77 c-2 62 5 119 12 106 1 -2 -1 -43 -5 -93z m271 46 c41 -25 25
-28 -24 -5 -22 11 -32 22 -29 31 3 8 9 10 12 5 3 -5 22 -19 41 -31z m-180 9
c0 -5 -2 -10 -4 -10 -3 0 -8 5 -11 10 -3 6 -1 10 4 10 6 0 11 -4 11 -10z m872
-33 c3 -29 1 -33 -15 -29 -15 4 -16 7 -5 14 10 7 10 11 1 14 -10 4 -10 8 0 19
7 8 13 14 13 15 1 0 4 -15 6 -33z m98 -1 c0 -6 -5 -5 -12 2 -19 19 -33 14 -15
-6 10 -10 14 -22 11 -25 -4 -4 -15 3 -25 15 -25 28 -8 54 22 35 10 -6 19 -16
19 -21z m124 23 c-3 -6 -6 -77 -6 -157 1 -80 -3 -151 -8 -157 -5 -6 -11 -56
-13 -111 -1 -54 -4 0 -5 122 -1 138 2 234 9 255 6 19 12 40 15 47 2 6 6 12 9
12 4 0 3 -5 -1 -11z m-1287 -51 c-3 -7 -5 -2 -5 12 0 14 2 19 5 13 2 -7 2 -19
0 -25z m479 -20 c-13 -22 -28 -24 -24 -4 2 8 -6 22 -17 30 -18 13 -17 13 16 3
32 -10 35 -14 25 -29z m737 -23 c4 -23 3 -34 -2 -25 -12 21 -24 99 -13 80 5
-8 12 -33 15 -55z m-120 35 c3 -11 1 -20 -4 -20 -5 0 -9 9 -9 20 0 11 2 20 4
20 2 0 6 -9 9 -20z m80 0 c4 -17 0 -20 -31 -19 -25 1 -29 3 -14 6 13 3 26 11
29 19 7 19 10 18 16 -6z m-503 -25 c0 -14 -4 -25 -10 -25 -5 0 -10 11 -10 25
0 14 5 25 10 25 6 0 10 -11 10 -25z m-413 -7 c-3 -8 -6 -5 -6 6 -1 11 2 17 5
13 3 -3 4 -12 1 -19z m-960 -45 c-3 -10 -5 -2 -5 17 0 19 2 27 5 18 2 -10 2
-26 0 -35z m40 15 c-3 -7 -5 -2 -5 12 0 14 2 19 5 13 2 -7 2 -19 0 -25z m1710
-60 c-2 -13 -4 -3 -4 22 0 25 2 35 4 23 2 -13 2 -33 0 -45z m-951 -21 c2 -36
0 -46 -6 -32 -10 24 -13 101 -3 91 4 -4 8 -30 9 -59z m318 -8 c-3 -69 -9 -82
-18 -43 -8 31 5 104 18 104 1 0 1 -27 0 -61z m-1107 -41 c-2 -13 -4 -3 -4 22
0 25 2 35 4 23 2 -13 2 -33 0 -45z m73 -193 c11 -67 17 -132 14 -145 -5 -20
-3 -22 5 -10 8 11 9 5 6 -25 -4 -30 -3 -35 4 -20 9 18 10 17 10 -8 1 -16 -3
-26 -9 -22 -12 7 -12 3 -4 -20 6 -13 9 -14 16 -3 7 9 8 4 3 -15 -4 -19 -2 -26
5 -22 5 3 10 0 10 -8 0 -8 7 -38 17 -66 14 -45 19 -51 43 -51 15 0 94 -21 176
-46 383 -117 616 -153 1044 -161 192 -3 361 -1 455 6 252 19 266 20 220 11
l-40 -7 36 -1 c20 -1 52 1 70 5 33 7 33 7 9 15 -15 4 -8 5 20 2 25 -4 51 -11
59 -18 11 -8 13 -8 8 1 -11 18 41 29 65 14 14 -8 17 -8 16 1 -2 6 12 15 30 18
18 4 36 11 40 15 4 5 -1 5 -10 2 -10 -3 -41 -9 -70 -12 -29 -2 18 11 106 29
166 36 411 109 421 126 3 6 11 10 16 10 6 0 8 -4 5 -9 -5 -8 70 2 79 11 2 2
11 19 19 38 17 39 22 26 6 -15 -7 -17 -7 -24 0 -20 6 3 10 13 10 21 0 9 5 12
12 8 8 -5 9 -2 5 10 -8 21 21 88 34 80 5 -3 9 5 9 17 0 12 3 20 6 16 3 -3 -4
-49 -17 -102 l-23 -95 -66 -21 c-110 -34 -402 -107 -532 -133 -256 -51 -538
-76 -863 -76 -538 0 -904 55 -1366 206 l-76 25 -16 77 c-30 139 -78 433 -75
450 2 9 12 -37 22 -103 25 -158 34 -187 32 -103 0 36 -4 64 -7 62 -4 -2 -7 8
-6 24 2 64 -4 136 -11 126 -4 -7 -8 29 -8 80 l-1 91 9 -70 c5 -38 18 -124 28
-190z m1127 233 c-3 -8 -6 -5 -6 6 -1 11 2 17 5 13 3 -3 4 -12 1 -19z m-527 8
c0 -3 -4 -8 -10 -11 -5 -3 -10 -1 -10 4 0 6 5 11 10 11 6 0 10 -2 10 -4z
m1098 -3 c-16 -4 -18 -19 -20 -106 l-1 -102 -7 85 c-7 95 1 131 27 129 17 -1
17 -2 1 -6z m122 -55 c0 -25 -3 -29 -10 -18 -13 20 -13 50 0 50 6 0 10 -15 10
-32z m3426 18 c157 -1 161 -2 202 -28 23 -15 46 -37 53 -49 7 -14 -3 -8 -25
14 -20 20 -48 40 -62 43 -14 4 -82 4 -152 2 -91 -4 -145 -1 -192 9 -66 15
-253 14 -295 -3 -11 -4 -17 -4 -13 1 16 18 81 24 198 19 69 -4 197 -7 286 -8z
m-3929 -43 c-3 -10 -5 -2 -5 17 0 19 2 27 5 18 2 -10 2 -26 0 -35z m118 37 c3
-5 1 -10 -4 -10 -6 0 -11 5 -11 10 0 6 2 10 4 10 3 0 8 -4 11 -10z m-848 -22
c-3 -8 -6 -5 -6 6 -1 11 2 17 5 13 3 -3 4 -12 1 -19z m853 -30 c0 -4 -11 -8
-25 -8 -14 0 -25 4 -25 9 0 5 10 7 23 4 20 -4 21 -3 5 10 -10 8 -18 20 -18 27
0 7 9 3 20 -10 11 -13 20 -27 20 -32z m920 27 c0 -8 -4 -15 -9 -15 -5 0 -11 7
-15 15 -3 9 0 15 9 15 8 0 15 -7 15 -15z m-1533 -17 c-3 -8 -6 -5 -6 6 -1 11
2 17 5 13 3 -3 4 -12 1 -19z m-890 -35 c-3 -10 -5 -2 -5 17 0 19 2 27 5 18 2
-10 2 -26 0 -35z m1808 37 c3 -5 1 -10 -4 -10 -6 0 -11 5 -11 10 0 6 2 10 4
10 3 0 8 -4 11 -10z m435 0 c0 -5 -4 -10 -10 -10 -5 0 -10 5 -10 10 0 6 5 10
10 10 6 0 10 -4 10 -10z m-970 -22 c0 -16 -3 -19 -11 -11 -6 6 -8 16 -5 22 11
17 16 13 16 -11z m609 -133 c-1 -56 -6 -109 -11 -116 -7 -10 -8 -1 -4 26 2 22
2 69 -2 105 -8 73 -5 103 9 94 6 -3 9 -51 8 -109z m-989 70 c0 -24 -5 -35 -15
-35 -10 0 -15 11 -15 35 0 24 5 35 15 35 10 0 15 -11 15 -35z m487 -32 c-2
-16 -4 -5 -4 22 0 28 2 40 4 28 2 -13 2 -35 0 -50z m-197 36 c0 -6 -4 -7 -10
-4 -5 3 -10 11 -10 16 0 6 5 7 10 4 6 -3 10 -11 10 -16z m87 -16 c-3 -10 -5
-4 -5 12 0 17 2 24 5 18 2 -7 2 -21 0 -30z m4310 15 c-3 -8 -6 -5 -6 6 -1 11
2 17 5 13 3 -3 4 -12 1 -19z m-2530 -30 c-3 -8 -6 -5 -6 6 -1 11 2 17 5 13 3
-3 4 -12 1 -19z m-1953 3 c3 -5 -1 -11 -9 -15 -9 -3 -15 0 -15 9 0 16 16 20
24 6z m166 -21 c0 -5 -2 -10 -4 -10 -3 0 -8 5 -11 10 -3 6 -1 10 4 10 6 0 11
-4 11 -10z m481 -25 c5 4 9 2 9 -4 0 -5 -4 -12 -9 -15 -9 -6 -22 17 -20 37 1
7 3 4 6 -6 2 -9 9 -15 14 -12z m498 -33 c-3 -93 -17 -112 -18 -24 -1 53 3 81
9 77 6 -3 9 -27 9 -53z m-1349 12 c0 -14 -4 -23 -10 -19 -5 3 -10 15 -10 26 0
10 5 19 10 19 6 0 10 -12 10 -26z m1647 -21 c-4 -17 -4 -17 -12 0 -4 9 -4 25
0 35 8 16 8 16 12 0 3 -10 3 -26 0 -35z m-897 26 c0 -4 -11 -9 -25 -11 -16 -3
-25 -1 -25 7 0 7 11 12 25 11 14 0 25 -4 25 -7z m3853 -6 c-7 -2 -21 -2 -30 0
-10 3 -4 5 12 5 17 0 24 -2 18 -5z m-133 -29 c-47 -14 -105 -34 -129 -45 -24
-10 -49 -19 -55 -19 -33 2 214 89 249 89 11 0 -18 -11 -65 -25z m513 19 c-7
-2 -21 -2 -30 0 -10 3 -4 5 12 5 17 0 24 -2 18 -5z m-4254 -49 c-10 -12 -14
-12 -20 -2 -17 26 -11 40 12 28 16 -9 18 -14 8 -26z m-1209 -15 c0 -5 -4 -9
-10 -9 -5 0 -10 7 -10 16 0 8 5 12 10 9 6 -3 10 -10 10 -16z m2407 15 c-3 -3
-12 -4 -19 -1 -8 3 -5 6 6 6 11 1 17 -2 13 -5z m250 -26 c-3 -8 -6 -5 -6 6 -1
11 2 17 5 13 3 -3 4 -12 1 -19z m-343 -15 c-2 -39 -4 -41 -15 -15 -9 24 -5 42
10 42 4 0 6 -12 5 -27z m-2393 -76 c-17 -17 -21 -4 -14 39 l7 39 8 -34 c6 -22
6 -37 -1 -44z m2676 21 c-3 -7 -5 -2 -5 12 0 14 2 19 5 13 2 -7 2 -19 0 -25z
m-1060 -25 c-3 -10 -5 -2 -5 17 0 19 2 27 5 18 2 -10 2 -26 0 -35z m-137 27
c0 -5 -2 -10 -4 -10 -3 0 -8 5 -11 10 -3 6 -1 10 4 10 6 0 11 -4 11 -10z m785
0 c3 -5 1 -10 -4 -10 -6 0 -11 5 -11 10 0 6 2 10 4 10 3 0 8 -4 11 -10z m-958
-22 c-3 -8 -6 -5 -6 6 -1 11 2 17 5 13 3 -3 4 -12 1 -19z m1020 -10 c-3 -7 -5
-2 -5 12 0 14 2 19 5 13 2 -7 2 -19 0 -25z m393 2 c0 -16 -4 -30 -8 -30 -5 0
-7 14 -4 30 2 17 6 30 8 30 2 0 4 -13 4 -30z m2540 -24 c-7 -21 -30 -51 -55
-72 -53 -43 -170 -104 -199 -104 -12 0 4 11 36 24 121 50 201 113 213 168 4
16 9 27 12 24 3 -2 0 -21 -7 -40z m-5168 -13 c6 -44 4 -48 -17 -40 -15 6 -21
57 -8 70 14 14 21 6 25 -30z m1828 27 c0 -5 -7 -10 -15 -10 -8 0 -15 5 -15 10
0 6 7 10 15 10 8 0 15 -4 15 -10z m744 -34 c-3 -21 -8 -35 -11 -32 -2 2 -1 20
3 40 3 21 8 35 11 32 2 -2 1 -20 -3 -40z m-1347 2 c-3 -8 -6 -5 -6 6 -1 11 2
17 5 13 3 -3 4 -12 1 -19z m730 0 c-3 -8 -6 -5 -6 6 -1 11 2 17 5 13 3 -3 4
-12 1 -19z m323 1 c0 -5 -7 -9 -15 -9 -15 0 -20 12 -9 23 8 8 24 -1 24 -14z
m-2363 -21 c-3 -8 -6 -5 -6 6 -1 11 2 17 5 13 3 -3 4 -12 1 -19z m165 -39 l-9
-24 -7 23 c-8 26 2 48 15 35 6 -6 6 -19 1 -34z m1202 6 c12 -18 13 -24 4 -23
-10 2 -14 -27 -18 -117 l-5 -120 -5 125 c-5 111 -3 160 5 160 1 0 10 -11 19
-25z m576 -36 c0 -37 -4 -58 -10 -54 -16 10 -11 115 6 115 2 0 4 -27 4 -61z
m195 51 c3 -5 1 -10 -4 -10 -6 0 -11 5 -11 10 0 6 2 10 4 10 3 0 8 -4 11 -10z
m743 -25 c-3 -3 -9 2 -12 12 -6 14 -5 15 5 6 7 -7 10 -15 7 -18z m-2491 -7
c-3 -8 -6 -5 -6 6 -1 11 2 17 5 13 3 -3 4 -12 1 -19z m2250 0 c-3 -8 -6 -5 -6
6 -1 11 2 17 5 13 3 -3 4 -12 1 -19z m-895 -28 c-2 -16 -8 -30 -13 -30 -10 0
-12 43 -2 53 14 14 19 6 15 -23z m3098 -20 c63 -23 99 -38 80 -35 -19 3 -63
17 -99 31 -38 15 -93 28 -136 31 -71 6 -74 5 -151 -37 -44 -24 -98 -59 -121
-78 -24 -19 -43 -31 -43 -27 0 4 -8 1 -17 -6 -10 -8 -2 5 16 28 33 42 63 60
90 54 7 -1 10 2 6 8 -3 6 0 9 8 6 7 -3 31 6 52 21 56 37 73 43 140 43 46 1 88
-9 175 -39z m-4413 -2 c-3 -7 -5 -2 -5 12 0 14 2 19 5 13 2 -7 2 -19 0 -25z
m881 -100 c0 -54 -4 -98 -9 -98 -5 0 -9 53 -8 118 0 76 3 110 9 97 5 -11 9
-64 8 -117z m482 86 c0 -8 -4 -12 -10 -9 -5 3 -10 10 -10 16 0 5 5 9 10 9 6 0
10 -7 10 -16z m2978 -21 c-10 -2 -28 -2 -40 0 -13 2 -5 4 17 4 22 1 32 -1 23
-4z m-3238 -13 c0 -5 -5 -10 -11 -10 -5 0 -7 5 -4 10 3 6 8 10 11 10 2 0 4 -4
4 -10z m3153 3 c-7 -2 -19 -2 -25 0 -7 3 -2 5 12 5 14 0 19 -2 13 -5z m-113
-13 c11 -7 4 -10 -27 -10 -23 0 -45 5 -48 10 -8 13 55 13 75 0z m57 4 c-3 -3
-12 -4 -19 -1 -8 3 -5 6 6 6 11 1 17 -2 13 -5z m-2670 -76 c-3 -8 -6 -5 -6 6
-1 11 2 17 5 13 3 -3 4 -12 1 -19z m2914 -15 c-12 -20 -14 -14 -5 12 4 9 9 14
11 11 3 -2 0 -13 -6 -23z m-501 14 c0 -2 -14 -16 -32 -33 -18 -16 -27 -22 -21
-14 6 8 12 20 12 25 1 6 5 10 10 10 5 0 13 3 17 8 8 7 14 9 14 4z m-77 -72
c-3 -9 -8 -14 -10 -11 -3 3 -2 9 2 15 9 16 15 13 8 -4z m-2395 -12 c-10 -2
-26 -2 -35 0 -10 3 -2 5 17 5 19 0 27 -2 18 -5z m2372 -6 c0 -2 -15 -16 -32
-33 l-33 -29 29 33 c28 30 36 37 36 29z m101 -118 c-11 -24 -20 -41 -20 -37
-1 12 31 89 35 85 3 -2 -4 -24 -15 -48z m-24 -121 c-3 -8 -6 -5 -6 6 -1 11 2
17 5 13 3 -3 4 -12 1 -19z m-882 -218 c-3 -5 -13 -10 -21 -10 -8 0 -12 5 -9
10 3 6 13 10 21 10 8 0 12 -4 9 -10z m14 -77 c-7 -10 -14 -19 -15 -21 -1 -1
-7 4 -14 13 -11 13 -10 14 3 10 8 -4 18 -2 22 4 3 6 9 11 12 11 3 0 -1 -8 -8
-17z m-54 -3 c3 -6 -1 -7 -9 -4 -18 7 -21 14 -7 14 6 0 13 -4 16 -10z m99 -12
c-3 -4 -11 -5 -19 -1 -21 7 -19 12 4 10 11 0 18 -5 15 -9z m-4405 -103 l0 -20
-9 20 c-5 11 -9 27 -9 35 -1 13 0 13 9 0 5 -8 9 -24 9 -35z m-47 -22 c9 -27
24 -86 32 -133 43 -244 46 -249 116 -285 27 -14 53 -33 59 -42 17 -33 24 -129
11 -154 -17 -34 -102 -119 -112 -113 -4 3 -8 -4 -8 -15 0 -12 -3 -20 -7 -20
-25 4 -73 -2 -69 -9 2 -4 1 -14 -5 -22 -6 -11 -9 -6 -9 18 l0 32 -82 0 c-46 0
-89 4 -96 8 -10 7 -6 22 15 68 33 71 44 199 36 399 -5 123 -4 133 20 192 26
63 62 123 75 123 4 0 15 -21 24 -47z m187 -39 c21 -4 31 -12 31 -24 0 -28 11
-50 25 -50 16 0 25 -32 25 -97 l0 -53 41 0 c36 0 40 -3 39 -22 -5 -56 -1 -68
25 -68 23 0 25 -4 25 -42 0 -48 12 -74 29 -64 10 6 15 -5 12 -26 0 -3 12 -9
28 -13 28 -6 41 -27 41 -67 0 -27 -29 -48 -68 -48 -52 0 -82 -10 -82 -26 0
-10 16 -14 60 -14 48 0 64 4 77 20 11 12 30 20 50 20 33 0 33 -1 33 -46 0 -37
4 -47 20 -51 16 -4 20 -14 20 -44 0 -34 3 -38 27 -41 25 -3 29 -8 36 -58 10
-72 31 -104 63 -96 23 6 24 5 24 -49 0 -50 -2 -55 -22 -55 -21 0 -21 -1 -3
-14 18 -13 18 -14 -3 -32 -12 -10 -22 -24 -22 -32 0 -10 -12 -12 -47 -8 -27 3
-40 3 -30 0 11 -4 17 -16 17 -35 0 -29 0 -29 -60 -29 l-60 0 -2 188 -3 187
-47 3 c-45 3 -48 4 -54 38 -5 28 -10 35 -25 31 -12 -3 -16 0 -12 9 3 8 1 14
-4 14 -5 0 -14 -15 -21 -32 l-12 -33 -16 23 c-16 23 -74 32 -74 11 0 -6 -19
-9 -47 -7 -33 2 -52 -2 -61 -12 -7 -8 -5 0 5 19 10 18 34 47 55 63 24 20 40
43 47 71 11 42 90 137 114 137 9 0 8 3 0 8 -19 12 -83 2 -83 -13 0 -6 -9 -22
-20 -34 l-19 -23 -5 23 c-3 13 -8 41 -11 61 -5 31 -13 42 -50 64 -56 33 -86
74 -97 133 -21 122 -31 210 -25 225 7 17 57 22 116 10z m3204 -31 c-68 -2
-178 -2 -245 0 -68 1 -13 3 122 3 135 0 190 -2 123 -3z m-3537 -371 c-5 -132
-25 -197 -78 -253 -13 -14 -22 -31 -20 -37 2 -6 -18 0 -43 15 -49 27 -136 128
-129 148 3 6 -2 18 -11 25 -10 8 -15 29 -15 61 0 66 31 108 168 228 l107 94
13 -79 c8 -50 11 -124 8 -202z m3382 66 c-3 -20 -4 -20 -18 6 -12 24 -12 28 0
36 17 11 24 -5 18 -42z m57 17 c-2 -50 -15 -56 -15 -7 0 23 4 42 8 42 4 0 7
-16 7 -35z m42 15 c1 -11 -2 -22 -6 -24 -3 -3 -8 6 -9 20 -1 13 2 24 6 24 4 0
8 -9 9 -20z m33 9 c0 8 2 12 5 9 3 -3 2 -13 -1 -22 -5 -14 -9 -15 -15 -4 -5 7
-9 18 -9 23 0 6 5 3 10 -5 8 -12 10 -12 10 -1z m-40 -84 c0 -8 -2 -15 -4 -15
-2 0 -6 7 -10 15 -3 8 -1 15 4 15 6 0 10 -7 10 -15z m-90 -19 c0 -23 -16 -27
-17 -5 -1 10 2 19 8 19 5 0 9 -6 9 -14z m80 -29 c0 -5 -4 -5 -10 -2 -5 3 -10
14 -10 23 0 15 2 15 10 2 5 -8 10 -19 10 -23z m46 -4 c-10 -10 -19 5 -10 18 6
11 8 11 12 0 2 -7 1 -15 -2 -18z m-79 1 c-3 -3 -12 -4 -19 -1 -8 3 -5 6 6 6
11 1 17 -2 13 -5z m-50 -46 c-3 -8 -6 -5 -6 6 -1 11 2 17 5 13 3 -3 4 -12 1
-19z m96 -11 c-3 -5 -10 -4 -15 1 -6 6 -7 16 -3 22 6 9 9 9 16 -1 4 -7 5 -17
2 -22z m-43 -1 c0 -3 -4 -8 -10 -11 -5 -3 -10 -1 -10 4 0 6 5 11 10 11 6 0 10
-2 10 -4z m1861 -149 c-10 -9 -11 -8 -5 6 3 10 9 15 12 12 3 -3 0 -11 -7 -18z
m-5587 -143 c3 -8 2 -12 -4 -9 -6 3 -10 10 -10 16 0 14 7 11 14 -7z m37 -51
c13 -16 12 -17 -3 -4 -10 7 -18 15 -18 17 0 8 8 3 21 -13z m44 -41 c-3 -3 -11
0 -18 7 -9 10 -8 11 6 5 10 -3 15 -9 12 -12z m5190 -182 c3 -6 -1 -7 -9 -4
-18 7 -21 14 -7 14 6 0 13 -4 16 -10z m-74 -58 c-50 -41 -72 -81 -100 -187
-36 -130 -42 -146 -53 -139 -7 4 -8 2 -4 -4 4 -7 4 -18 -1 -24 -4 -7 -9 -24
-11 -38 -5 -34 -12 -39 -12 -9 0 35 57 255 79 305 26 57 88 125 108 117 10 -4
14 -2 10 4 -3 5 1 10 10 10 9 0 -2 -14 -26 -35z m1289 -142 c0 -5 -9 -10 -21
-10 -11 0 -17 5 -14 10 3 6 13 10 21 10 8 0 14 -4 14 -10z m-6427 -7 c-7 -2
-21 -2 -30 0 -10 3 -4 5 12 5 17 0 24 -2 18 -5z m4412 -62 c-6 -5 -48 -19 -95
-31 -180 -46 -284 -101 -321 -170 -10 -19 -18 -29 -19 -22 0 23 28 69 61 96
52 44 127 77 244 107 119 30 144 34 130 20z m-2517 -258 c-15 -2 -42 -2 -60 0
-18 2 -6 4 27 4 33 0 48 -2 33 -4z m179 1 c-3 -3 -12 -4 -19 -1 -8 3 -5 6 6 6
11 1 17 -2 13 -5z m-350 -26 c-3 -8 -6 -5 -6 6 -1 11 2 17 5 13 3 -3 4 -12 1
-19z m2263 -48 c0 -5 -5 -10 -11 -10 -13 0 -34 -20 -42 -40 -3 -8 -6 2 -6 23
-1 35 1 37 29 37 17 0 30 -4 30 -10z m1116 -4 c1 -1 4 -14 8 -29 4 -19 3 -26
-4 -22 -5 3 -10 15 -10 26 0 17 -6 20 -37 17 -30 -2 -39 -8 -44 -28 -6 -23 -7
-23 -8 -3 -1 12 -4 28 -7 37 -5 13 2 14 48 9 29 -3 53 -6 54 -7z m-3553 -3
c-7 -2 -21 -2 -30 0 -10 3 -4 5 12 5 17 0 24 -2 18 -5z m246 -15 c-1 -19 -2
-19 -6 -5 -4 16 -13 18 -64 15 -32 -1 -59 0 -59 5 0 4 29 7 65 7 61 0 65 -1
64 -22z m131 8 c-14 -6 -28 -15 -32 -21 -5 -6 -8 -3 -8 7 0 9 -8 19 -17 21
-10 2 5 4 32 4 45 0 47 -1 25 -11z m190 10 c0 -3 -4 -8 -10 -11 -5 -3 -10 -1
-10 4 0 6 5 11 10 11 6 0 10 -2 10 -4z m240 0 c0 -8 -61 -12 -66 -4 -3 4 11 8
30 8 20 0 36 -2 36 -4z m710 -4 c0 -5 -13 -7 -30 -4 -16 2 -30 6 -30 8 0 2 14
4 30 4 17 0 30 -4 30 -8z m100 1 c-8 -3 -18 -11 -22 -17 -5 -7 -8 -4 -8 7 0
11 7 17 23 16 15 0 17 -2 7 -6z m219 -20 c-2 -24 -2 -25 -6 -5 -5 24 -13 28
-30 11 -8 -8 -17 -8 -31 0 -18 9 -21 8 -25 -12 -4 -19 -4 -18 -6 6 -1 26 1 27
49 27 48 0 50 -1 49 -27z m143 18 c-7 -4 -25 -6 -39 -3 -23 4 -25 2 -20 -17 3
-11 1 -21 -4 -21 -5 0 -9 11 -9 25 0 23 4 25 43 25 26 0 37 -3 29 -9z m168 -1
c0 -5 -6 -10 -12 -11 -7 0 -4 -4 7 -9 19 -8 19 -9 -2 -9 -13 -1 -23 4 -23 10
0 8 -4 8 -12 2 -7 -6 -21 -13 -30 -16 -14 -5 -18 -1 -18 18 0 23 4 25 45 25
25 0 45 -4 45 -10z m159 -17 l-1 -28 -8 25 c-4 14 -8 20 -9 13 -1 -12 -25 -12
-37 0 -13 13 -23 7 -27 -15 -4 -20 -4 -19 -6 5 -1 26 1 27 44 27 43 0 45 -1
44 -27z m205 12 c-4 -8 -8 -15 -10 -15 -2 0 -4 7 -4 15 0 8 4 15 10 15 5 0 7
-7 4 -15z m84 -22 c-1 -37 -1 -37 -5 -6 -4 27 -9 32 -36 36 -31 4 -31 4 6 5
37 2 37 2 35 -35z m82 27 c0 -5 -4 -10 -10 -10 -5 0 -10 5 -10 10 0 6 5 10 10
10 6 0 10 -4 10 -10z m144 -6 c14 -38 7 -44 -49 -44 -54 0 -55 0 -55 30 0 29
1 30 49 30 35 0 51 -4 55 -16z m89 -1 c4 -2 7 -11 7 -19 0 -11 16 -14 74 -14
l74 0 7 -42 c4 -24 13 -70 20 -103 8 -33 24 -113 36 -177 l21 -118 99 0 c77 0
99 -3 99 -14 0 -7 3 -28 7 -46 l6 -33 -92 6 -93 6 6 -47 c4 -26 12 -62 17 -79
l11 -33 171 -2 c621 -7 615 -8 603 62 -3 19 -13 80 -21 135 -16 104 -74 430
-81 453 -2 7 -9 10 -15 6 -7 -4 -7 -9 -2 -13 8 -5 76 -374 85 -461 l3 -25
-100 0 -100 0 -3 43 -3 42 65 0 66 0 -6 33 c-4 17 -23 108 -45 202 -21 93 -35
173 -31 176 4 4 33 10 64 14 l57 6 10 -38 c5 -21 18 -72 27 -113 9 -41 41
-168 70 -282 30 -114 54 -216 54 -227 0 -10 -14 -31 -31 -45 l-31 -26 -2209 0
-2209 0 -34 33 -35 32 54 220 c29 121 65 279 80 350 29 135 41 166 51 127 5
-17 14 -22 40 -22 l34 0 0 -55 0 -55 50 0 50 0 0 -43 0 -43 -38 4 -37 4 -33
-160 c-51 -246 -45 -232 -98 -232 -39 0 -45 3 -40 18 12 39 25 108 25 127 -1
31 -49 -153 -55 -210 -5 -48 -4 -49 12 -27 21 29 107 32 123 5 9 -16 105 -18
1598 -18 873 -1 1627 1 1676 3 l87 4 0 43 c0 23 -3 57 -6 74 -6 29 -9 31 -54
31 -47 0 -47 0 -54 39 -3 21 -13 51 -21 67 -8 16 -15 50 -15 75 0 25 -7 54
-15 65 -8 10 -15 33 -15 51 0 29 -3 32 -37 35 -37 3 -38 4 -38 43 0 40 0 40
43 43 l42 3 0 50 0 49 -39 0 c-35 0 -39 3 -43 30 -4 27 -3 29 21 23 14 -3 29
-8 34 -10z m331 -5 c3 -13 6 -26 6 -29 0 -3 -26 -5 -57 -5 -56 1 -58 2 -61 29
-3 27 -2 27 51 27 48 0 55 -3 61 -22z m92 15 c-15 -4 -16 -7 -5 -15 11 -7 11
-11 1 -15 -6 -2 -10 -9 -6 -14 3 -5 0 -9 -5 -9 -6 0 -11 14 -11 30 0 25 4 30
23 29 19 -1 19 -2 3 -6z m408 -15 c3 -13 6 -31 6 -42 0 -15 -3 -16 -15 -6 -10
8 -31 11 -60 7 -32 -5 -45 -3 -45 6 0 6 -3 22 -6 35 -6 21 -4 22 54 22 53 0
60 -2 66 -22z m-2477 -10 c-3 -8 -6 -5 -6 6 -1 11 2 17 5 13 3 -3 4 -12 1 -19z
m160 -10 c-3 -7 -5 -2 -5 12 0 14 2 19 5 13 2 -7 2 -19 0 -25z m1013 7 c0 -8
-2 -15 -4 -15 -2 0 -6 7 -10 15 -3 8 -1 15 4 15 6 0 10 -7 10 -15z m1095 5
c-3 -5 -12 -7 -20 -3 -21 7 -19 13 6 13 11 0 18 -4 14 -10z m-1755 -10 c0 -5
-2 -10 -4 -10 -3 0 -8 5 -11 10 -3 6 -1 10 4 10 6 0 11 -4 11 -10z m1753 -17
c-7 -2 -19 -2 -25 0 -7 3 -2 5 12 5 14 0 19 -2 13 -5z m39 -58 c3 -14 1 -25
-3 -25 -5 0 -9 11 -9 25 0 14 2 25 4 25 2 0 6 -11 8 -25z m-1665 -7 c-3 -8 -6
-5 -6 6 -1 11 2 17 5 13 3 -3 4 -12 1 -19z m1836 8 c12 4 17 1 17 -14 0 -15
-5 -18 -25 -14 -17 3 -25 11 -25 26 0 15 3 17 8 8 5 -7 16 -10 25 -6z m-1459
-5 c2 5 3 4 2 -3 -3 -17 -54 -19 -60 -2 -3 9 3 10 24 4 17 -5 31 -4 34 1z
m-317 -18 c3 -8 -6 -12 -25 -10 -17 1 -28 7 -25 13 5 15 45 12 50 -3z m163 13
c0 -2 -13 -6 -30 -8 -16 -3 -30 -1 -30 4 0 4 14 8 30 8 17 0 30 -2 30 -4z
m190 -11 c0 -8 -7 -15 -15 -15 -13 0 -14 3 -3 15 16 18 18 18 18 0z m1167 -7
c-3 -8 -6 -5 -6 6 -1 11 2 17 5 13 3 -3 4 -12 1 -19z m189 13 c20 16 19 -7 -1
-27 -8 -9 -15 -11 -15 -6 0 6 -2 16 -3 24 -2 7 -2 9 1 5 2 -4 10 -3 18 4z
m-1689 -23 c-3 -8 -6 -5 -6 6 -1 11 2 17 5 13 3 -3 4 -12 1 -19z m1196 5 c-7
-2 -19 -2 -25 0 -7 3 -2 5 12 5 14 0 19 -2 13 -5z m88 -82 c-9 -2 -19 -8 -23
-15 -5 -6 -8 -1 -8 13 0 16 4 22 15 17 10 -3 15 1 16 12 0 14 2 14 8 -3 6 -15
4 -21 -8 -24z m326 7 c-3 -8 -6 -5 -6 6 -1 11 2 17 5 13 3 -3 4 -12 1 -19z
m179 -3 c4 -14 4 -29 0 -32 -3 -4 -6 3 -6 15 0 11 -8 26 -17 31 -17 10 -17 10
-1 11 11 0 20 -10 24 -25z m-1023 8 c-13 -2 -33 -2 -45 0 -13 2 -3 4 22 4 25
0 35 -2 23 -4z m825 -5 c-3 -7 -12 -14 -21 -16 -12 -2 -15 1 -11 12 7 19 38
22 32 4z m-140 -25 c-10 -2 -26 -2 -35 0 -10 3 -2 5 17 5 19 0 27 -2 18 -5z
m-2731 -65 c-3 -7 -5 -2 -5 12 0 14 2 19 5 13 2 -7 2 -19 0 -25z m2480 10 c-3
-8 -6 -5 -6 6 -1 11 2 17 5 13 3 -3 4 -12 1 -19z m-1888 -10 c1 6 6 12 12 12
5 0 8 -4 4 -9 -3 -5 3 -12 12 -14 10 -3 3 -5 -14 -6 -28 -1 -33 2 -32 22 0 21
1 21 9 2 5 -11 9 -14 9 -7z m188 -14 c-3 -3 -12 -4 -19 -1 -8 3 -5 6 6 6 11 1
17 -2 13 -5z m2322 -64 c0 -10 -3 -8 -9 5 -12 27 -12 43 0 25 5 -8 9 -22 9
-30z m-3959 20 c0 -5 -5 -10 -11 -10 -5 0 -7 5 -4 10 3 6 8 10 11 10 2 0 4 -4
4 -10z m53 3 c-7 -2 -21 -2 -30 0 -10 3 -4 5 12 5 17 0 24 -2 18 -5z m3734
-25 c-3 -7 -5 -2 -5 12 0 14 2 19 5 13 2 -7 2 -19 0 -25z m-804 15 c-51 -2
-136 -2 -190 0 -54 1 -12 3 92 3 105 0 149 -2 98 -3z m590 0 c-7 -2 -19 -2
-25 0 -7 3 -2 5 12 5 14 0 19 -2 13 -5z m50 0 c-7 -2 -19 -2 -25 0 -7 3 -2 5
12 5 14 0 19 -2 13 -5z m-600 -20 c-13 -2 -33 -2 -45 0 -13 2 -3 4 22 4 25 0
35 -2 23 -4z m721 -8 c-4 -8 -10 -15 -15 -15 -4 0 -6 7 -3 15 4 8 10 15 15 15
4 0 6 -7 3 -15z m-1041 -12 c-18 -2 -48 -2 -65 0 -18 2 -4 4 32 4 36 0 50 -2
33 -4z m374 1 c-3 -3 -12 -4 -19 -1 -8 3 -5 6 6 6 11 1 17 -2 13 -5z m376 -1
c-18 -2 -48 -2 -65 0 -18 2 -4 4 32 4 36 0 50 -2 33 -4z m-2443 -13 c0 -5 -2
-10 -4 -10 -3 0 -8 5 -11 10 -3 6 -1 10 4 10 6 0 11 -4 11 -10z m267 4 c-3 -3
-12 -4 -19 -1 -8 3 -5 6 6 6 11 1 17 -2 13 -5z m-1189 -69 c1 -1 0 -21 -4 -44
l-7 -41 -62 0 c-36 0 -65 5 -67 11 -2 5 -2 28 0 50 l4 39 67 -6 c36 -4 67 -8
69 -9z m2842 -41 l0 -44 -50 0 c-43 0 -50 3 -50 20 0 11 5 20 10 20 6 0 10 4
10 10 0 5 -7 7 -15 4 -11 -4 -15 1 -15 17 0 23 3 24 55 21 l55 -4 0 -44z
m-2633 24 c-3 -8 -6 -5 -6 6 -1 11 2 17 5 13 3 -3 4 -12 1 -19z m273 -18 c0
-31 -4 -40 -17 -40 -10 0 -60 -3 -110 -6 l-93 -5 0 46 0 45 110 0 110 0 0 -40z
m1710 8 l0 -28 -827 0 -828 0 -2 29 -2 29 829 -2 830 -1 0 -27z m240 -13 l0
-45 -90 0 -90 0 0 45 0 45 90 0 90 0 0 -45z m240 0 l0 -45 -90 0 -90 0 0 45 0
45 90 0 90 0 0 -45z m334 29 c3 -9 6 -29 6 -45 0 -28 -2 -29 -49 -29 -52 0
-61 10 -61 68 0 20 5 22 49 22 35 0 51 -4 55 -16z m576 -8 c0 -13 3 -31 6 -39
4 -12 -5 -16 -41 -19 -26 -2 -50 -1 -54 2 -4 3 -11 22 -14 43 l-6 37 55 0 c50
0 54 -2 54 -24z m164 2 c3 -13 6 -33 6 -45 0 -21 -5 -23 -45 -23 -48 0 -49 1
-59 58 l-5 32 48 0 c42 0 49 -3 55 -22z m-3554 -33 c0 -8 -9 -15 -19 -15 -29
0 -35 18 -9 23 13 2 24 5 26 6 1 0 2 -6 2 -14z m-133 -17 c-3 -8 -6 -5 -6 6
-1 11 2 17 5 13 3 -3 4 -12 1 -19z m43 6 c0 -2 -7 -4 -15 -4 -8 0 -15 4 -15
10 0 5 7 7 15 4 8 -4 15 -8 15 -10z m4735 -54 c3 -5 2 -10 -4 -10 -5 0 -13 5
-16 10 -3 6 -2 10 4 10 5 0 13 -4 16 -10z m-6738 -32 c-3 -8 -6 -5 -6 6 -1 11
2 17 5 13 3 -3 4 -12 1 -19z m6953 -48 c0 -5 -2 -10 -4 -10 -3 0 -8 5 -11 10
-3 6 -1 10 4 10 6 0 11 -4 11 -10z m-5900 -10 c0 -5 -2 -10 -4 -10 -3 0 -8 5
-11 10 -3 6 -1 10 4 10 6 0 11 -4 11 -10z m-440 -77 c0 -16 -20 -27 -52 -29
-30 -2 -54 19 -43 36 9 15 95 8 95 -7z m705 -3 c-3 -5 -10 -10 -16 -10 -5 0
-9 5 -9 10 0 6 7 10 16 10 8 0 12 -4 9 -10z m6245 0 l-55 -7 70 -1 c48 -1 65
1 55 8 -12 8 -11 10 8 10 13 0 22 -6 22 -16 0 -12 -14 -15 -85 -13 -47 1 -85
5 -85 10 0 12 22 17 75 17 l50 -1 -55 -7z m-1265 -28 c-3 -3 -11 0 -18 7 -9
10 -8 11 6 5 10 -3 15 -9 12 -12z m1873 -67 c-10 -8 -98 -13 -98 -5 0 10 55
17 83 11 10 -2 16 -5 15 -6z m-7205 -22 c-7 -2 -21 -2 -30 0 -10 3 -4 5 12 5
17 0 24 -2 18 -5z m2212 -63 c13 -6 -7 -9 -62 -9 -49 -1 -83 3 -83 9 0 12 117
12 145 0z m1735 -42 c0 -10 -17 -12 -70 -10 -87 4 -84 18 5 21 48 1 65 -1 65
-11z m590 3 c0 -4 -27 -9 -60 -10 -36 -1 -60 3 -60 9 0 6 25 10 60 10 33 0 60
-4 60 -9z"/>
<path d="M4343 7094 c-9 -24 6 -32 43 -24 40 9 51 17 40 27 -13 13 -78 10 -83
-3z"/>
<path d="M3963 7001 c7 -31 0 -45 -27 -55 -15 -5 -17 -9 -7 -19 9 -9 14 -9 22
3 9 13 10 13 8 0 -3 -24 17 -65 25 -52 12 19 41 14 51 -10 20 -43 33 -31 40
36 7 61 9 66 32 66 21 0 23 3 17 23 -3 12 -7 23 -8 23 0 1 -36 4 -79 6 l-79 5
5 -26z m49 -7 c-7 -12 -4 -22 9 -35 11 -11 19 -29 19 -41 0 -18 -2 -20 -9 -8
-6 8 -7 18 -4 23 3 5 0 8 -8 5 -19 -6 -42 19 -44 46 0 16 6 23 23 24 18 1 21
-1 14 -14z"/>
<path d="M5091 6963 c3 -19 -2 -34 -10 -29 -4 3 -17 -4 -27 -17 l-19 -22 21
18 c19 16 22 16 27 2 4 -8 12 -15 19 -14 10 0 10 2 1 6 -7 2 -13 9 -13 14 0 6
5 7 10 4 6 -3 10 3 10 14 0 11 -5 23 -10 26 -6 4 -10 3 -9 -2z"/>
<path d="M5121 6944 c0 -11 3 -14 6 -6 3 7 2 16 -1 19 -3 4 -6 -2 -5 -13z"/>
<path d="M5150 6956 c0 -2 7 -9 15 -16 9 -7 15 -8 15 -2 0 5 -7 12 -15 16 -8
3 -15 4 -15 2z"/>
<path d="M4489 6935 c-3 -5 -7 -31 -8 -57 -2 -38 1 -48 13 -48 11 0 16 9 15
28 -2 42 -14 88 -20 77z"/>
<path d="M5140 6931 c0 -7 7 -19 15 -27 19 -20 19 -5 0 20 -9 11 -15 14 -15 7z"/>
<path d="M5195 6905 c0 -22 5 -35 13 -35 8 0 10 9 6 28 -10 42 -19 45 -19 7z"/>
<path d="M3030 6894 c0 -14 3 -14 15 -4 8 7 15 14 15 16 0 2 -7 4 -15 4 -8 0
-15 -7 -15 -16z"/>
<path d="M4936 6885 c4 -8 11 -15 16 -15 6 0 5 6 -2 15 -7 8 -14 15 -16 15 -2
0 -1 -7 2 -15z"/>
<path d="M3900 6874 c0 -9 7 -14 17 -12 25 5 28 28 4 28 -12 0 -21 -6 -21 -16z"/>
<path d="M4895 6880 c3 -5 8 -10 11 -10 2 0 4 5 4 10 0 6 -5 10 -11 10 -5 0
-7 -4 -4 -10z"/>
<path d="M5182 6825 c1 -14 6 -25 11 -25 4 0 6 -4 2 -9 -3 -5 0 -13 6 -17 9
-5 10 0 7 14 -4 12 -2 25 3 28 17 10 9 34 -11 34 -15 0 -19 -6 -18 -25z"/>
<path d="M4623 6825 c3 -26 31 -26 36 0 3 16 1 17 -12 7 -12 -10 -16 -10 -21
0 -3 7 -5 4 -3 -7z"/>
<path d="M4690 6833 c0 -5 4 -14 9 -21 6 -10 10 -9 14 7 3 14 0 21 -9 21 -8 0
-14 -3 -14 -7z"/>
<path d="M5041 6824 c0 -11 3 -14 6 -6 3 7 2 16 -1 19 -3 4 -6 -2 -5 -13z"/>
<path d="M4730 6815 c0 -10 5 -13 13 -9 9 6 9 4 -1 -8 -16 -20 2 -35 23 -18 8
6 18 9 24 6 5 -3 7 3 4 14 -3 11 -9 17 -14 14 -5 -3 -18 0 -29 6 -16 9 -20 8
-20 -5z"/>
<path d="M4380 6790 c0 -29 1 -30 50 -30 49 0 50 1 50 30 0 29 -1 30 -50 30
-49 0 -50 -1 -50 -30z m68 3 c-10 -2 -26 -2 -35 0 -10 3 -2 5 17 5 19 0 27 -2
18 -5z"/>
<path d="M3575 6791 c3 -2 -8 -10 -25 -17 -40 -17 -42 -58 -2 -77 15 -8 34
-12 42 -10 11 3 12 2 2 -5 -10 -7 -8 -15 10 -38 13 -15 22 -30 20 -32 -2 -2 0
-7 4 -10 4 -4 5 -2 2 3 -3 6 0 16 8 23 12 11 14 9 14 -13 0 -14 4 -24 9 -21 5
4 11 2 13 -3 4 -12 128 38 128 51 0 6 -29 8 -70 6 l-69 -3 -7 55 c-9 72 -17
87 -54 92 -16 3 -28 2 -25 -1z m53 -48 c3 -34 -18 -38 -44 -10 -13 15 -24 28
-24 30 0 2 15 3 33 3 27 -1 33 -5 35 -23z m10 -78 c-3 -3 -9 2 -12 12 -6 14
-5 15 5 6 7 -7 10 -15 7 -18z"/>
<path d="M3426 6775 c4 -8 8 -15 10 -15 2 0 4 7 4 15 0 8 -4 15 -10 15 -5 0
-7 -7 -4 -15z"/>
<path d="M5143 6715 c0 -27 2 -38 4 -22 2 15 2 37 0 50 -2 12 -4 0 -4 -28z"/>
<path d="M4604 6738 c-16 -26 30 -37 61 -14 17 12 16 14 -19 18 -20 2 -39 0
-42 -4z"/>
<path d="M5205 6730 c10 -33 8 -32 38 -17 29 13 35 27 12 27 -8 0 -15 -5 -15
-12 0 -6 -10 -3 -21 8 -22 19 -22 19 -14 -6z"/>
<path d="M4140 6722 c0 -16 25 -40 45 -44 13 -2 22 -13 25 -32 4 -22 11 -29
31 -32 31 -3 54 10 44 25 -5 9 -10 9 -22 0 -12 -10 -16 -10 -24 2 -15 24 -10
28 26 27 24 -1 36 -7 41 -20 6 -19 24 -25 24 -8 0 6 -4 10 -10 10 -5 0 -10 3
-10 8 0 4 18 8 40 9 57 2 70 9 70 38 l0 25 -140 0 c-77 0 -140 -4 -140 -8z"/>
<path d="M5096 6661 c-4 -5 3 -7 14 -4 23 6 26 13 6 13 -8 0 -17 -4 -20 -9z"/>
<path d="M3859 6628 c9 -24 38 -35 99 -37 31 -1 33 1 30 27 -3 26 -5 27 -70
30 -67 3 -68 3 -59 -20z"/>
<path d="M3556 6633 c-3 -4 -6 -19 -6 -34 0 -23 5 -28 28 -32 l27 -4 -27 -2
c-28 -1 -38 -18 -15 -26 6 -2 35 -5 63 -8 48 -4 50 -3 46 18 -5 27 -43 50 -71
42 -14 -3 -18 -1 -14 9 5 15 -21 47 -31 37z"/>
<path d="M4360 6624 c0 -19 15 -25 66 -29 40 -3 44 -2 44 18 0 20 -6 22 -55
23 -40 1 -55 -2 -55 -12z"/>
<path d="M3750 6572 c0 -5 7 -16 16 -23 14 -12 16 -11 13 5 -4 20 -29 35 -29
18z"/>
<path d="M3791 6564 c0 -11 3 -14 6 -6 3 7 2 16 -1 19 -3 4 -6 -2 -5 -13z"/>
<path d="M3814 6569 c-12 -20 12 -31 47 -21 l34 9 -28 12 c-35 14 -44 14 -53
0z"/>
<path d="M3688 6563 c6 -2 18 -2 25 0 6 3 1 5 -13 5 -14 0 -19 -2 -12 -5z"/>
<path d="M3950 6551 c0 -11 25 -21 56 -21 15 0 24 6 24 15 0 11 -11 15 -40 15
-22 0 -40 -4 -40 -9z"/>
<path d="M3704 6515 c0 -20 3 -30 7 -24 5 8 9 6 12 -7 4 -17 5 -17 6 -1 0 10
6 15 11 12 16 -10 11 8 -9 33 -11 12 -21 22 -23 22 -1 0 -3 -16 -4 -35z"/>
<path d="M3372 6495 c0 -16 2 -22 5 -12 2 9 2 23 0 30 -3 6 -5 -1 -5 -18z"/>
<path d="M3627 6505 c-33 -24 -7 -76 30 -60 10 5 21 7 26 7 4 -1 7 8 7 21 0
18 -2 19 -10 7 -8 -12 -10 -11 -10 6 0 27 -20 36 -43 19z m25 -37 c-12 -12
-35 -1 -26 13 3 5 10 7 15 4 5 -4 9 0 10 7 0 10 2 10 6 0 3 -8 1 -18 -5 -24z"/>
<path d="M4762 6484 c-6 -7 -8 -15 -3 -19 5 -3 13 0 16 5 5 8 13 6 26 -6 16
-14 19 -15 19 -2 0 22 -42 39 -58 22z"/>
<path d="M3590 6440 c0 -5 5 -10 11 -10 5 0 7 5 4 10 -3 6 -8 10 -11 10 -2 0
-4 -4 -4 -10z"/>
<path d="M4921 6374 c15 -16 25 -21 28 -13 2 7 -4 18 -15 26 -30 22 -39 15
-13 -13z"/>
<path d="M3798 6353 c-20 -5 -24 -28 -6 -39 7 -4 8 -3 4 4 -4 7 -2 12 3 12 6
0 11 -4 11 -10 0 -5 5 -10 10 -10 12 0 14 37 3 43 -5 2 -16 2 -25 0z"/>
<path d="M3940 6321 c0 -5 5 -13 10 -16 6 -3 10 -2 10 4 0 5 -4 13 -10 16 -5
3 -10 2 -10 -4z"/>
<path d="M4805 6311 c-3 -5 -1 -12 5 -16 5 -3 10 1 10 9 0 18 -6 21 -15 7z"/>
<path d="M4805 6270 c3 -5 8 -10 11 -10 2 0 4 5 4 10 0 6 -5 10 -11 10 -5 0
-7 -4 -4 -10z"/>
<path d="M4535 6230 c28 -12 37 -12 30 0 -3 6 -16 10 -28 9 -21 0 -21 -1 -2
-9z"/>
<path d="M4137 6196 c-4 -10 -7 -26 -7 -37 0 -11 -6 -22 -14 -25 -8 -3 -14
-19 -14 -37 0 -29 3 -32 29 -32 29 0 29 1 28 55 0 30 -4 64 -8 74 -7 18 -8 18
-14 2z"/>
<path d="M4160 5956 c0 -2 7 -9 15 -16 12 -10 15 -10 15 4 0 9 -7 16 -15 16
-8 0 -15 -2 -15 -4z"/>
<path d="M4171 5824 c0 -11 3 -14 6 -6 3 7 2 16 -1 19 -3 4 -6 -2 -5 -13z"/>
<path d="M4086 5792 c-2 -4 11 -6 30 -4 19 2 34 6 34 8 0 8 -59 4 -64 -4z"/>
<path d="M2950 6830 c-9 -6 -10 -10 -3 -10 6 0 15 5 18 10 8 12 4 12 -15 0z"/>
<path d="M3113 6790 c1 -11 5 -20 9 -20 4 0 8 9 8 20 0 11 -4 20 -9 20 -6 0
-9 -9 -8 -20z"/>
<path d="M3191 6474 c0 -11 3 -14 6 -6 3 7 2 16 -1 19 -3 4 -6 -2 -5 -13z"/>
<path d="M3076 6431 c-4 -7 -5 -15 -2 -18 9 -9 19 4 14 18 -4 11 -6 11 -12 0z"/>
<path d="M3222 6342 c-9 -6 -6 -12 13 -20 22 -10 25 -9 25 8 0 21 -16 26 -38
12z"/>
<path d="M3204 6294 c3 -9 6 -19 6 -22 0 -9 20 21 20 31 0 4 -7 7 -16 7 -11 0
-14 -5 -10 -16z"/>
<path d="M2992 6270 c0 -19 2 -27 5 -17 2 9 2 25 0 35 -3 9 -5 1 -5 -18z"/>
<path d="M3020 6271 c0 -12 7 -24 15 -28 25 -9 27 2 5 27 l-20 23 0 -22z"/>
<path d="M3290 6275 c0 -8 7 -15 15 -15 9 0 12 6 9 15 -4 8 -10 15 -15 15 -5
0 -9 -7 -9 -15z"/>
<path d="M3453 6263 c9 -2 25 -2 35 0 9 3 1 5 -18 5 -19 0 -27 -2 -17 -5z"/>
<path d="M3272 6620 c0 -19 2 -27 5 -17 2 9 2 25 0 35 -3 9 -5 1 -5 -18z"/>
<path d="M5391 6714 c0 -11 3 -14 6 -6 3 7 2 16 -1 19 -3 4 -6 -2 -5 -13z"/>
<path d="M5230 6516 c0 -9 5 -16 10 -16 6 0 10 4 10 9 0 6 -4 13 -10 16 -5 3
-10 -1 -10 -9z"/>
<path d="M5310 6440 c0 -5 5 -10 10 -10 6 0 10 5 10 10 0 6 -4 10 -10 10 -5 0
-10 -4 -10 -10z"/>
<path d="M3356 6071 c-3 -5 1 -14 8 -20 12 -10 13 -8 9 8 -6 23 -9 25 -17 12z"/>
<path d="M4632 6062 c-7 -5 -10 -16 -6 -26 4 -11 0 -23 -12 -32 -11 -9 -14
-13 -7 -10 18 9 21 -27 3 -41 -13 -11 -11 -12 10 -13 24 0 25 2 25 65 0 36 0
65 0 65 0 0 -6 -4 -13 -8z"/>
<path d="M4735 6030 c3 -5 11 -10 16 -10 6 0 7 5 4 10 -3 6 -11 10 -16 10 -6
0 -7 -4 -4 -10z"/>
<path d="M4332 5940 c0 -19 2 -27 5 -17 2 9 2 25 0 35 -3 9 -5 1 -5 -18z"/>
<path d="M2631 5184 c0 -11 3 -14 6 -6 3 7 2 16 -1 19 -3 4 -6 -2 -5 -13z"/>
<path d="M2651 5084 c0 -11 3 -14 6 -6 3 7 2 16 -1 19 -3 4 -6 -2 -5 -13z"/>
<path d="M5188 4913 c7 -3 16 -2 19 1 4 3 -2 6 -13 5 -11 0 -14 -3 -6 -6z"/>
<path d="M5048 4883 c6 -2 18 -2 25 0 6 3 1 5 -13 5 -14 0 -19 -2 -12 -5z"/>
<path d="M4998 4873 c7 -3 16 -2 19 1 4 3 -2 6 -13 5 -11 0 -14 -3 -6 -6z"/>
<path d="M5078 4863 c7 -3 16 -2 19 1 4 3 -2 6 -13 5 -11 0 -14 -3 -6 -6z"/>
<path d="M4978 4853 c6 -2 18 -2 25 0 6 3 1 5 -13 5 -14 0 -19 -2 -12 -5z"/>
<path d="M3368 4833 c6 -2 18 -2 25 0 6 3 1 5 -13 5 -14 0 -19 -2 -12 -5z"/>
<path d="M4928 4833 c6 -2 18 -2 25 0 6 3 1 5 -13 5 -14 0 -19 -2 -12 -5z"/>
<path d="M3423 4823 c9 -2 25 -2 35 0 9 3 1 5 -18 5 -19 0 -27 -2 -17 -5z"/>
<path d="M3518 4813 c7 -3 16 -2 19 1 4 3 -2 6 -13 5 -11 0 -14 -3 -6 -6z"/>
<path d="M4543 4803 c9 -2 23 -2 30 0 6 3 -1 5 -18 5 -16 0 -22 -2 -12 -5z"/>
<path d="M4448 4793 c12 -2 30 -2 40 0 9 3 -1 5 -23 4 -22 0 -30 -2 -17 -4z"/>
<path d="M7329 5003 c-14 -9 -32 -25 -39 -37 -9 -15 -3 -13 21 9 19 16 38 33
44 37 16 13 1 8 -26 -9z"/>
<path d="M2200 3861 c0 -22 -4 -43 -10 -46 -15 -9 -12 -41 5 -55 12 -10 18
-10 30 0 17 14 21 60 5 60 -5 0 -10 15 -10 34 0 19 -4 38 -10 41 -6 4 -10 -10
-10 -34z"/>
<path d="M1600 3555 c19 -19 36 -35 39 -35 3 0 -10 16 -29 35 -19 19 -36 35
-39 35 -3 0 10 -16 29 -35z"/>
<path d="M6968 2383 c6 -2 18 -2 25 0 6 3 1 5 -13 5 -14 0 -19 -2 -12 -5z"/>
<path d="M2860 2251 c0 -5 -7 -11 -15 -13 -13 -2 -12 -6 5 -16 18 -11 20 -10
20 13 0 14 -2 25 -5 25 -3 0 -5 -4 -5 -9z"/>
<path d="M2851 2184 c0 -11 3 -14 6 -6 3 7 2 16 -1 19 -3 4 -6 -2 -5 -13z"/>
<path d="M2835 2115 c-3 -26 -4 -49 -2 -51 3 -3 8 16 12 41 3 26 4 49 2 51 -3
3 -8 -16 -12 -41z"/>
<path d="M2822 2030 c0 -14 2 -19 5 -12 2 6 2 18 0 25 -3 6 -5 1 -5 -13z"/>
<path d="M5880 1910 c-13 -8 -12 -10 3 -10 9 0 17 5 17 10 0 12 -1 12 -20 0z"/>
<path d="M6645 1920 c3 -5 11 -10 16 -10 6 0 7 5 4 10 -3 6 -11 10 -16 10 -6
0 -7 -4 -4 -10z"/>
<path d="M8231 3748 c0 -15 -8 -34 -17 -42 -14 -14 -14 -16 0 -16 17 0 30 38
23 67 -3 12 -5 10 -6 -9z"/>
<path d="M9700 1855 c-14 -17 -61 -20 -77 -4 -6 6 -23 9 -39 7 -25 -3 -29 -8
-32 -40 -5 -64 7 -75 99 -83 104 -9 116 -1 103 77 -10 56 -30 72 -54 43z"/>
<path d="M532 1638 c-7 -7 -12 -25 -12 -40 l0 -29 68 3 c61 3 67 5 70 26 2 13
-2 30 -8 38 -15 17 -101 19 -118 2z"/>
<path d="M7584 1635 c-10 -24 6 -35 52 -35 36 0 44 3 44 19 0 10 -7 22 -16 25
-29 11 -75 6 -80 -9z"/>
<path d="M2650 1630 c-9 -6 -10 -10 -3 -10 6 0 15 5 18 10 8 12 4 12 -15 0z"/>
<path d="M7875 1605 c20 -16 37 -16 36 0 0 6 -13 11 -28 13 -27 2 -27 2 -8
-13z"/>
<path d="M1360 1600 c0 -6 7 -10 15 -10 8 0 15 2 15 4 0 2 -7 6 -15 10 -8 3
-15 1 -15 -4z"/>
<path d="M2628 1603 c7 -3 16 -2 19 1 4 3 -2 6 -13 5 -11 0 -14 -3 -6 -6z"/>
<path d="M7452 1598 c-21 -21 -13 -28 27 -28 48 0 62 16 26 30 -34 13 -38 13
-53 -2z"/>
<path d="M7840 1593 c0 -21 5 -23 48 -22 l47 1 -39 8 c-21 4 -42 13 -47 21 -6
11 -9 8 -9 -8z"/>
<path d="M7640 1580 c20 -13 50 -13 50 0 0 6 -15 10 -32 10 -25 0 -29 -3 -18
-10z"/>
<path d="M1492 1560 c-19 -30 -14 -49 13 -56 52 -13 75 25 37 59 -24 22 -34
21 -50 -3z"/>
<path d="M7718 1573 c6 -2 18 -2 25 0 6 3 1 5 -13 5 -14 0 -19 -2 -12 -5z"/>
<path d="M8088 1563 c7 -3 16 -2 19 1 4 3 -2 6 -13 5 -11 0 -14 -3 -6 -6z"/>
<path d="M1671 1541 c-8 -5 -11 -16 -8 -25 8 -21 131 -24 125 -3 -3 6 -23 13
-46 15 -23 2 -42 7 -42 13 0 11 -11 11 -29 0z"/>
<path d="M8434 1535 c-9 -24 5 -35 46 -35 45 0 61 17 35 37 -25 17 -74 17 -81
-2z"/>
<path d="M7450 1515 c-18 -22 -3 -35 40 -35 48 0 58 13 25 34 -30 20 -49 20
-65 1z"/>
<path d="M1865 1510 c3 -6 -1 -10 -10 -10 -9 0 -14 -4 -11 -9 7 -10 46 -3 46
9 0 4 -7 11 -16 14 -8 3 -12 2 -9 -4z"/>
<path d="M7395 1500 c3 -5 13 -10 21 -10 8 0 14 5 14 10 0 6 -9 10 -21 10 -11
0 -17 -4 -14 -10z"/>
<path d="M8300 1500 c0 -5 6 -10 14 -10 8 0 18 5 21 10 3 6 -3 10 -14 10 -12
0 -21 -4 -21 -10z"/>
<path d="M8847 1488 c-6 -4 17 -7 53 -7 66 1 65 5 -3 11 -20 2 -43 0 -50 -4z"/>
<path d="M9020 1490 c0 -5 7 -10 15 -10 8 0 15 5 15 10 0 6 -7 10 -15 10 -8 0
-15 -4 -15 -10z"/>
<path d="M9100 1490 c-13 -9 -13 -11 0 -20 20 -13 47 -13 55 1 8 12 6 15 -20
23 -11 3 -27 1 -35 -4z"/>
<path d="M1616 1473 c-13 -14 -5 -33 14 -33 11 0 20 6 20 14 0 15 -24 28 -34
19z"/>
<path d="M7832 1468 c-4 -4 -31 -8 -61 -10 -57 -3 -80 -21 -68 -52 6 -14 21
-16 109 -14 l103 3 3 36 c3 36 2 37 -38 41 -22 2 -44 0 -48 -4z"/>
<path d="M8100 1465 c0 -12 7 -15 25 -13 14 2 26 8 26 13 0 6 -12 11 -26 13
-18 2 -25 -1 -25 -13z"/>
<path d="M1280 1425 c0 -12 14 -15 71 -15 52 0 70 3 67 13 -3 7 -29 13 -71 15
-55 2 -67 0 -67 -13z"/>
<path d="M8547 1423 c-17 -16 -3 -23 43 -23 38 0 50 4 50 15 0 11 -11 15 -43
15 -24 0 -47 -3 -50 -7z"/>
<path d="M8695 1420 c3 -5 31 -10 61 -10 30 0 54 5 54 10 0 6 -27 10 -61 10
-37 0 -58 -4 -54 -10z"/>
<path d="M1170 1395 c-18 -22 -1 -37 36 -33 21 2 29 8 29 23 0 26 -46 33 -65
10z"/>
<path d="M2160 1403 c-14 -3 -27 -8 -30 -13 -3 -4 -21 -17 -40 -29 -35 -21
-35 -21 -8 -21 15 0 30 5 34 11 4 7 20 8 43 4 77 -13 105 -11 109 9 8 37 -35
52 -108 39z"/>
<path d="M8868 1393 c7 -3 16 -2 19 1 4 3 -2 6 -13 5 -11 0 -14 -3 -6 -6z"/>
<path d="M8147 1374 c-12 -13 4 -24 34 -24 20 0 29 4 27 13 -5 13 -50 22 -61
11z"/>
<path d="M2245 1290 c-8 -12 17 -23 41 -18 10 1 19 9 22 16 5 15 -54 17 -63 2z"/>
<path d="M1044 1225 c-3 -8 -4 -22 0 -30 8 -22 129 -21 151 1 28 29 12 39 -68
42 -62 2 -78 0 -83 -13z"/>
<path d="M7537 1233 c-12 -11 -8 -33 7 -39 13 -5 56 27 56 41 0 7 -56 6 -63
-2z"/>
<path d="M1520 1180 c-27 -17 1 -45 46 -45 35 0 39 3 42 28 3 25 1 27 -35 27
-21 0 -45 -5 -53 -10z"/>
<path d="M8632 1139 c-10 -25 -6 -49 8 -49 13 0 22 52 11 63 -7 7 -13 3 -19
-14z"/>
<path d="M1945 1120 c-4 -6 5 -10 19 -10 14 0 26 5 26 10 0 6 -9 10 -19 10
-11 0 -23 -4 -26 -10z"/>
<path d="M8797 1123 c-13 -12 -7 -33 8 -33 8 0 15 9 15 20 0 20 -11 26 -23 13z"/>
<path d="M7830 1045 c0 -14 -5 -25 -11 -25 -6 0 -8 9 -4 22 6 17 4 20 -10 14
-9 -3 -35 -9 -58 -12 -76 -10 -87 -14 -87 -32 0 -9 -7 -30 -15 -46 -10 -19
-12 -33 -6 -39 12 -12 482 -22 574 -13 l67 8 0 41 c0 65 -7 69 -106 73 -185 8
-264 16 -264 25 0 5 -18 9 -40 9 -36 0 -40 -2 -40 -25z"/>
<path d="M8490 980 c0 -5 11 -10 25 -10 14 0 25 5 25 10 0 6 -11 10 -25 10
-14 0 -25 -4 -25 -10z"/>
</g>
</svg>
